solid delanclip-gopro-adapter
   facet normal -1.000000e+00 0.000000e+00 0.000000e+00
      outer loop
         vertex 0.000000e+00 1.836970e-20 1.778000e-02
         vertex 0.000000e+00 4.500000e-03 1.500000e-02
         vertex 0.000000e+00 1.836970e-20 1.500000e-02
      endloop
   endfacet
   facet normal 0.000000e+00 -1.000000e+00 0.000000e+00
      outer loop
         vertex 4.600000e-03 1.836970e-20 1.500000e-02
         vertex 2.277837e-03 1.836970e-20 1.780431e-02
         vertex 0.000000e+00 1.836970e-20 1.500000e-02
      endloop
   endfacet
   facet normal 0.000000e+00 -1.000000e+00 0.000000e+00
      outer loop
         vertex 2.277837e-03 1.836970e-20 1.780431e-02
         vertex 2.000000e-03 1.836970e-20 1.778000e-02
         vertex 0.000000e+00 1.836970e-20 1.500000e-02
      endloop
   endfacet
   facet normal -0.000000e+00 -1.000000e+00 0.000000e+00
      outer loop
         vertex 2.000000e-03 1.836970e-20 1.778000e-02
         vertex 0.000000e+00 1.836970e-20 1.778000e-02
         vertex 0.000000e+00 1.836970e-20 1.500000e-02
      endloop
   endfacet
   facet normal 0.000000e+00 -0.000000e+00 -1.000000e+00
      outer loop
         vertex 4.600000e-03 2.000000e-03 1.500000e-02
         vertex 4.600000e-03 1.836970e-20 1.500000e-02
         vertex 0.000000e+00 1.836970e-20 1.500000e-02
      endloop
   endfacet
   facet normal 0.000000e+00 0.000000e+00 -1.000000e+00
      outer loop
         vertex 0.000000e+00 4.500000e-03 1.500000e-02
         vertex 4.600000e-03 2.000000e-03 1.500000e-02
         vertex 0.000000e+00 1.836970e-20 1.500000e-02
      endloop
   endfacet
   facet normal 0.000000e+00 -1.000000e+00 -0.000000e+00
      outer loop
         vertex 4.600000e-03 1.836970e-20 2.700000e-02
         vertex 3.599999e-03 1.836970e-20 1.938000e-02
         vertex 4.600000e-03 1.836970e-20 1.500000e-02
      endloop
   endfacet
   facet normal 0.000000e+00 -1.000000e+00 -0.000000e+00
      outer loop
         vertex 3.599999e-03 1.836970e-20 1.938000e-02
         vertex 3.575692e-03 1.836970e-20 1.910216e-02
         vertex 4.600000e-03 1.836970e-20 1.500000e-02
      endloop
   endfacet
   facet normal 0.000000e+00 -1.000000e+00 -0.000000e+00
      outer loop
         vertex 3.575692e-03 1.836970e-20 1.910216e-02
         vertex 3.503508e-03 1.836970e-20 1.883277e-02
         vertex 4.600000e-03 1.836970e-20 1.500000e-02
      endloop
   endfacet
   facet normal 0.000000e+00 -1.000000e+00 -0.000000e+00
      outer loop
         vertex 3.503508e-03 1.836970e-20 1.883277e-02
         vertex 3.385640e-03 1.836970e-20 1.858000e-02
         vertex 4.600000e-03 1.836970e-20 1.500000e-02
      endloop
   endfacet
   facet normal 0.000000e+00 -1.000000e+00 -0.000000e+00
      outer loop
         vertex 3.385640e-03 1.836970e-20 1.858000e-02
         vertex 3.225671e-03 1.836970e-20 1.835154e-02
         vertex 4.600000e-03 1.836970e-20 1.500000e-02
      endloop
   endfacet
   facet normal 0.000000e+00 -1.000000e+00 -0.000000e+00
      outer loop
         vertex 3.225671e-03 1.836970e-20 1.835154e-02
         vertex 3.028460e-03 1.836970e-20 1.815433e-02
         vertex 4.600000e-03 1.836970e-20 1.500000e-02
      endloop
   endfacet
   facet normal 0.000000e+00 -1.000000e+00 -0.000000e+00
      outer loop
         vertex 3.028460e-03 1.836970e-20 1.815433e-02
         vertex 2.800000e-03 1.836970e-20 1.799436e-02
         vertex 4.600000e-03 1.836970e-20 1.500000e-02
      endloop
   endfacet
   facet normal 0.000000e+00 -1.000000e+00 -0.000000e+00
      outer loop
         vertex 2.800000e-03 1.836970e-20 1.799436e-02
         vertex 2.547232e-03 1.836970e-20 1.787649e-02
         vertex 4.600000e-03 1.836970e-20 1.500000e-02
      endloop
   endfacet
   facet normal 0.000000e+00 -1.000000e+00 -0.000000e+00
      outer loop
         vertex 2.547232e-03 1.836970e-20 1.787649e-02
         vertex 2.277837e-03 1.836970e-20 1.780431e-02
         vertex 4.600000e-03 1.836970e-20 1.500000e-02
      endloop
   endfacet
   facet normal 1.000000e+00 0.000000e+00 -0.000000e+00
      outer loop
         vertex 4.600000e-03 2.000000e-03 1.500000e-02
         vertex 4.600000e-03 2.000000e-03 2.700000e-02
         vertex 4.600000e-03 1.836970e-20 1.500000e-02
      endloop
   endfacet
   facet normal 1.000000e+00 0.000000e+00 0.000000e+00
      outer loop
         vertex 4.600000e-03 2.000000e-03 2.700000e-02
         vertex 4.600000e-03 1.836970e-20 2.700000e-02
         vertex 4.600000e-03 1.836970e-20 1.500000e-02
      endloop
   endfacet
   facet normal -0.000000e+00 -1.000000e+00 0.000000e+00
      outer loop
         vertex 1.400000e-02 1.836970e-20 1.799436e-02
         vertex 1.377154e-02 1.836970e-20 1.815433e-02
         vertex 1.220000e-02 1.836970e-20 1.500000e-02
      endloop
   endfacet
   facet normal -0.000000e+00 -1.000000e+00 0.000000e+00
      outer loop
         vertex 1.425277e-02 1.836970e-20 1.787649e-02
         vertex 1.400000e-02 1.836970e-20 1.799436e-02
         vertex 1.220000e-02 1.836970e-20 1.500000e-02
      endloop
   endfacet
   facet normal -0.000000e+00 -1.000000e+00 0.000000e+00
      outer loop
         vertex 1.377154e-02 1.836970e-20 1.815433e-02
         vertex 1.357433e-02 1.836970e-20 1.835154e-02
         vertex 1.220000e-02 1.836970e-20 1.500000e-02
      endloop
   endfacet
   facet normal -0.000000e+00 -1.000000e+00 0.000000e+00
      outer loop
         vertex 1.357433e-02 1.836970e-20 1.835154e-02
         vertex 1.341436e-02 1.836970e-20 1.858000e-02
         vertex 1.220000e-02 1.836970e-20 1.500000e-02
      endloop
   endfacet
   facet normal -0.000000e+00 -1.000000e+00 0.000000e+00
      outer loop
         vertex 1.341436e-02 1.836970e-20 1.858000e-02
         vertex 1.329649e-02 1.836970e-20 1.883277e-02
         vertex 1.220000e-02 1.836970e-20 1.500000e-02
      endloop
   endfacet
   facet normal 0.000000e+00 -1.000000e+00 0.000000e+00
      outer loop
         vertex 1.680000e-02 1.836970e-20 1.500000e-02
         vertex 1.480000e-02 1.836970e-20 1.778000e-02
         vertex 1.220000e-02 1.836970e-20 1.500000e-02
      endloop
   endfacet
   facet normal -0.000000e+00 -1.000000e+00 0.000000e+00
      outer loop
         vertex 1.480000e-02 1.836970e-20 1.778000e-02
         vertex 1.452216e-02 1.836970e-20 1.780431e-02
         vertex 1.220000e-02 1.836970e-20 1.500000e-02
      endloop
   endfacet
   facet normal -0.000000e+00 -1.000000e+00 0.000000e+00
      outer loop
         vertex 1.452216e-02 1.836970e-20 1.780431e-02
         vertex 1.425277e-02 1.836970e-20 1.787649e-02
         vertex 1.220000e-02 1.836970e-20 1.500000e-02
      endloop
   endfacet
   facet normal -0.000000e+00 -1.000000e+00 0.000000e+00
      outer loop
         vertex 1.329649e-02 1.836970e-20 1.883277e-02
         vertex 1.322431e-02 1.836970e-20 1.910216e-02
         vertex 1.220000e-02 1.836970e-20 1.500000e-02
      endloop
   endfacet
   facet normal -0.000000e+00 -1.000000e+00 0.000000e+00
      outer loop
         vertex 1.322431e-02 1.836970e-20 1.910216e-02
         vertex 1.320000e-02 1.836970e-20 1.938000e-02
         vertex 1.220000e-02 1.836970e-20 1.500000e-02
      endloop
   endfacet
   facet normal -0.000000e+00 -1.000000e+00 0.000000e+00
      outer loop
         vertex 1.320000e-02 1.836970e-20 1.938000e-02
         vertex 1.220000e-02 1.836970e-20 2.700000e-02
         vertex 1.220000e-02 1.836970e-20 1.500000e-02
      endloop
   endfacet
   facet normal -1.000000e+00 0.000000e+00 0.000000e+00
      outer loop
         vertex 1.220000e-02 1.836970e-20 2.700000e-02
         vertex 1.220000e-02 2.000000e-03 2.700000e-02
         vertex 1.220000e-02 1.836970e-20 1.500000e-02
      endloop
   endfacet
   facet normal -1.000000e+00 0.000000e+00 -0.000000e+00
      outer loop
         vertex 1.220000e-02 2.000000e-03 2.700000e-02
         vertex 1.220000e-02 2.000000e-03 1.500000e-02
         vertex 1.220000e-02 1.836970e-20 1.500000e-02
      endloop
   endfacet
   facet normal 0.000000e+00 0.000000e+00 -1.000000e+00
      outer loop
         vertex 1.220000e-02 2.000000e-03 1.500000e-02
         vertex 1.680000e-02 4.500000e-03 1.500000e-02
         vertex 1.220000e-02 1.836970e-20 1.500000e-02
      endloop
   endfacet
   facet normal 0.000000e+00 -0.000000e+00 -1.000000e+00
      outer loop
         vertex 1.680000e-02 4.500000e-03 1.500000e-02
         vertex 1.680000e-02 1.836970e-20 1.500000e-02
         vertex 1.220000e-02 1.836970e-20 1.500000e-02
      endloop
   endfacet
   facet normal 1.000000e+00 0.000000e+00 -0.000000e+00
      outer loop
         vertex 1.680000e-02 4.500000e-03 1.500000e-02
         vertex 1.680000e-02 9.000000e-03 1.778000e-02
         vertex 1.680000e-02 1.836970e-20 1.500000e-02
      endloop
   endfacet
   facet normal 1.000000e+00 0.000000e+00 0.000000e+00
      outer loop
         vertex 1.680000e-02 9.000000e-03 1.778000e-02
         vertex 1.680000e-02 1.836970e-20 1.778000e-02
         vertex 1.680000e-02 1.836970e-20 1.500000e-02
      endloop
   endfacet
   facet normal -0.000000e+00 -1.000000e+00 -0.000000e+00
      outer loop
         vertex 1.680000e-02 1.836970e-20 1.778000e-02
         vertex 1.480000e-02 1.836970e-20 1.778000e-02
         vertex 1.680000e-02 1.836970e-20 1.500000e-02
      endloop
   endfacet
   facet normal -1.000000e+00 -0.000000e+00 0.000000e+00
      outer loop
         vertex 0.000000e+00 9.000000e-03 1.778000e-02
         vertex 0.000000e+00 4.500000e-03 1.500000e-02
         vertex 0.000000e+00 1.836970e-20 1.778000e-02
      endloop
   endfacet
   facet normal 0.000000e+00 0.000000e+00 1.000000e+00
      outer loop
         vertex 2.000000e-03 1.836970e-20 1.778000e-02
         vertex 0.000000e+00 9.000000e-03 1.778000e-02
         vertex 0.000000e+00 1.836970e-20 1.778000e-02
      endloop
   endfacet
   facet normal -8.715556e-02 0.000000e+00 9.961947e-01
      outer loop
         vertex 2.277837e-03 9.000000e-03 1.780431e-02
         vertex 2.000000e-03 9.000000e-03 1.778000e-02
         vertex 2.000000e-03 1.836970e-20 1.778000e-02
      endloop
   endfacet
   facet normal -8.715556e-02 0.000000e+00 9.961947e-01
      outer loop
         vertex 2.277837e-03 1.836970e-20 1.780431e-02
         vertex 2.277837e-03 9.000000e-03 1.780431e-02
         vertex 2.000000e-03 1.836970e-20 1.778000e-02
      endloop
   endfacet
   facet normal 0.000000e+00 0.000000e+00 1.000000e+00
      outer loop
         vertex 2.000000e-03 9.000000e-03 1.778000e-02
         vertex 0.000000e+00 9.000000e-03 1.778000e-02
         vertex 2.000000e-03 1.836970e-20 1.778000e-02
      endloop
   endfacet
   facet normal 8.715556e-02 0.000000e+00 9.961947e-01
      outer loop
         vertex 1.480000e-02 9.000000e-03 1.778000e-02
         vertex 1.452216e-02 1.836970e-20 1.780431e-02
         vertex 1.480000e-02 1.836970e-20 1.778000e-02
      endloop
   endfacet
   facet normal 0.000000e+00 0.000000e+00 1.000000e+00
      outer loop
         vertex 1.680000e-02 9.000000e-03 1.778000e-02
         vertex 1.480000e-02 9.000000e-03 1.778000e-02
         vertex 1.480000e-02 1.836970e-20 1.778000e-02
      endloop
   endfacet
   facet normal 0.000000e+00 -0.000000e+00 1.000000e+00
      outer loop
         vertex 1.680000e-02 1.836970e-20 1.778000e-02
         vertex 1.680000e-02 9.000000e-03 1.778000e-02
         vertex 1.480000e-02 1.836970e-20 1.778000e-02
      endloop
   endfacet
   facet normal -2.588198e-01 0.000000e+00 9.659256e-01
      outer loop
         vertex 2.547232e-03 9.000000e-03 1.787649e-02
         vertex 2.277837e-03 9.000000e-03 1.780431e-02
         vertex 2.277837e-03 1.836970e-20 1.780431e-02
      endloop
   endfacet
   facet normal -2.588198e-01 0.000000e+00 9.659256e-01
      outer loop
         vertex 2.547232e-03 1.836970e-20 1.787649e-02
         vertex 2.547232e-03 9.000000e-03 1.787649e-02
         vertex 2.277837e-03 1.836970e-20 1.780431e-02
      endloop
   endfacet
   facet normal 2.588198e-01 0.000000e+00 9.659256e-01
      outer loop
         vertex 1.452216e-02 9.000000e-03 1.780431e-02
         vertex 1.425277e-02 1.836970e-20 1.787649e-02
         vertex 1.452216e-02 1.836970e-20 1.780431e-02
      endloop
   endfacet
   facet normal 8.715556e-02 0.000000e+00 9.961947e-01
      outer loop
         vertex 1.480000e-02 9.000000e-03 1.778000e-02
         vertex 1.452216e-02 9.000000e-03 1.780431e-02
         vertex 1.452216e-02 1.836970e-20 1.780431e-02
      endloop
   endfacet
   facet normal -4.226172e-01 0.000000e+00 9.063083e-01
      outer loop
         vertex 2.800000e-03 9.000000e-03 1.799436e-02
         vertex 2.547232e-03 9.000000e-03 1.787649e-02
         vertex 2.547232e-03 1.836970e-20 1.787649e-02
      endloop
   endfacet
   facet normal -4.226172e-01 0.000000e+00 9.063083e-01
      outer loop
         vertex 2.800000e-03 1.836970e-20 1.799436e-02
         vertex 2.800000e-03 9.000000e-03 1.799436e-02
         vertex 2.547232e-03 1.836970e-20 1.787649e-02
      endloop
   endfacet
   facet normal 4.226172e-01 0.000000e+00 9.063083e-01
      outer loop
         vertex 1.425277e-02 9.000000e-03 1.787649e-02
         vertex 1.400000e-02 1.836970e-20 1.799436e-02
         vertex 1.425277e-02 1.836970e-20 1.787649e-02
      endloop
   endfacet
   facet normal 2.588198e-01 0.000000e+00 9.659256e-01
      outer loop
         vertex 1.452216e-02 9.000000e-03 1.780431e-02
         vertex 1.425277e-02 9.000000e-03 1.787649e-02
         vertex 1.425277e-02 1.836970e-20 1.787649e-02
      endloop
   endfacet
   facet normal -5.735769e-01 0.000000e+00 8.191517e-01
      outer loop
         vertex 3.028460e-03 9.000000e-03 1.815433e-02
         vertex 2.800000e-03 9.000000e-03 1.799436e-02
         vertex 2.800000e-03 1.836970e-20 1.799436e-02
      endloop
   endfacet
   facet normal -5.735769e-01 0.000000e+00 8.191517e-01
      outer loop
         vertex 3.028460e-03 1.836970e-20 1.815433e-02
         vertex 3.028460e-03 9.000000e-03 1.815433e-02
         vertex 2.800000e-03 1.836970e-20 1.799436e-02
      endloop
   endfacet
   facet normal 5.735769e-01 0.000000e+00 8.191517e-01
      outer loop
         vertex 1.400000e-02 9.000000e-03 1.799436e-02
         vertex 1.377154e-02 1.836970e-20 1.815433e-02
         vertex 1.400000e-02 1.836970e-20 1.799436e-02
      endloop
   endfacet
   facet normal 4.226172e-01 0.000000e+00 9.063083e-01
      outer loop
         vertex 1.425277e-02 9.000000e-03 1.787649e-02
         vertex 1.400000e-02 9.000000e-03 1.799436e-02
         vertex 1.400000e-02 1.836970e-20 1.799436e-02
      endloop
   endfacet
   facet normal -7.071068e-01 0.000000e+00 7.071068e-01
      outer loop
         vertex 3.225671e-03 9.000000e-03 1.835154e-02
         vertex 3.028460e-03 9.000000e-03 1.815433e-02
         vertex 3.028460e-03 1.836970e-20 1.815433e-02
      endloop
   endfacet
   facet normal -7.071068e-01 0.000000e+00 7.071068e-01
      outer loop
         vertex 3.225671e-03 1.836970e-20 1.835154e-02
         vertex 3.225671e-03 9.000000e-03 1.835154e-02
         vertex 3.028460e-03 1.836970e-20 1.815433e-02
      endloop
   endfacet
   facet normal 7.071068e-01 0.000000e+00 7.071068e-01
      outer loop
         vertex 1.377154e-02 9.000000e-03 1.815433e-02
         vertex 1.357433e-02 1.836970e-20 1.835154e-02
         vertex 1.377154e-02 1.836970e-20 1.815433e-02
      endloop
   endfacet
   facet normal 5.735769e-01 0.000000e+00 8.191517e-01
      outer loop
         vertex 1.400000e-02 9.000000e-03 1.799436e-02
         vertex 1.377154e-02 9.000000e-03 1.815433e-02
         vertex 1.377154e-02 1.836970e-20 1.815433e-02
      endloop
   endfacet
   facet normal -8.191523e-01 0.000000e+00 5.735761e-01
      outer loop
         vertex 3.385640e-03 9.000000e-03 1.858000e-02
         vertex 3.225671e-03 9.000000e-03 1.835154e-02
         vertex 3.225671e-03 1.836970e-20 1.835154e-02
      endloop
   endfacet
   facet normal -8.191523e-01 0.000000e+00 5.735761e-01
      outer loop
         vertex 3.385640e-03 1.836970e-20 1.858000e-02
         vertex 3.385640e-03 9.000000e-03 1.858000e-02
         vertex 3.225671e-03 1.836970e-20 1.835154e-02
      endloop
   endfacet
   facet normal 8.191523e-01 0.000000e+00 5.735761e-01
      outer loop
         vertex 1.357433e-02 9.000000e-03 1.835154e-02
         vertex 1.341436e-02 1.836970e-20 1.858000e-02
         vertex 1.357433e-02 1.836970e-20 1.835154e-02
      endloop
   endfacet
   facet normal 7.071068e-01 0.000000e+00 7.071068e-01
      outer loop
         vertex 1.377154e-02 9.000000e-03 1.815433e-02
         vertex 1.357433e-02 9.000000e-03 1.835154e-02
         vertex 1.357433e-02 1.836970e-20 1.835154e-02
      endloop
   endfacet
   facet normal -9.063077e-01 0.000000e+00 4.226185e-01
      outer loop
         vertex 3.503508e-03 9.000000e-03 1.883277e-02
         vertex 3.385640e-03 9.000000e-03 1.858000e-02
         vertex 3.385640e-03 1.836970e-20 1.858000e-02
      endloop
   endfacet
   facet normal -9.063077e-01 0.000000e+00 4.226185e-01
      outer loop
         vertex 3.503508e-03 1.836970e-20 1.883277e-02
         vertex 3.503508e-03 9.000000e-03 1.883277e-02
         vertex 3.385640e-03 1.836970e-20 1.858000e-02
      endloop
   endfacet
   facet normal 9.063077e-01 0.000000e+00 4.226185e-01
      outer loop
         vertex 1.341436e-02 9.000000e-03 1.858000e-02
         vertex 1.329649e-02 1.836970e-20 1.883277e-02
         vertex 1.341436e-02 1.836970e-20 1.858000e-02
      endloop
   endfacet
   facet normal 8.191523e-01 0.000000e+00 5.735761e-01
      outer loop
         vertex 1.357433e-02 9.000000e-03 1.835154e-02
         vertex 1.341436e-02 9.000000e-03 1.858000e-02
         vertex 1.341436e-02 1.836970e-20 1.858000e-02
      endloop
   endfacet
   facet normal -9.659259e-01 0.000000e+00 2.588187e-01
      outer loop
         vertex 3.575692e-03 9.000000e-03 1.910216e-02
         vertex 3.503508e-03 9.000000e-03 1.883277e-02
         vertex 3.503508e-03 1.836970e-20 1.883277e-02
      endloop
   endfacet
   facet normal -9.659259e-01 0.000000e+00 2.588187e-01
      outer loop
         vertex 3.575692e-03 1.836970e-20 1.910216e-02
         vertex 3.575692e-03 9.000000e-03 1.910216e-02
         vertex 3.503508e-03 1.836970e-20 1.883277e-02
      endloop
   endfacet
   facet normal 9.659259e-01 0.000000e+00 2.588187e-01
      outer loop
         vertex 1.329649e-02 9.000000e-03 1.883277e-02
         vertex 1.322431e-02 1.836970e-20 1.910216e-02
         vertex 1.329649e-02 1.836970e-20 1.883277e-02
      endloop
   endfacet
   facet normal 9.063077e-01 0.000000e+00 4.226185e-01
      outer loop
         vertex 1.341436e-02 9.000000e-03 1.858000e-02
         vertex 1.329649e-02 9.000000e-03 1.883277e-02
         vertex 1.329649e-02 1.836970e-20 1.883277e-02
      endloop
   endfacet
   facet normal -9.961947e-01 0.000000e+00 8.715541e-02
      outer loop
         vertex 3.599999e-03 9.000000e-03 1.938000e-02
         vertex 3.575692e-03 9.000000e-03 1.910216e-02
         vertex 3.575692e-03 1.836970e-20 1.910216e-02
      endloop
   endfacet
   facet normal -9.961947e-01 0.000000e+00 8.715541e-02
      outer loop
         vertex 3.599999e-03 1.836970e-20 1.938000e-02
         vertex 3.599999e-03 9.000000e-03 1.938000e-02
         vertex 3.575692e-03 1.836970e-20 1.910216e-02
      endloop
   endfacet
   facet normal 9.961947e-01 0.000000e+00 8.715541e-02
      outer loop
         vertex 1.322431e-02 9.000000e-03 1.910216e-02
         vertex 1.320000e-02 1.836970e-20 1.938000e-02
         vertex 1.322431e-02 1.836970e-20 1.910216e-02
      endloop
   endfacet
   facet normal 9.659259e-01 0.000000e+00 2.588187e-01
      outer loop
         vertex 1.329649e-02 9.000000e-03 1.883277e-02
         vertex 1.322431e-02 9.000000e-03 1.910216e-02
         vertex 1.322431e-02 1.836970e-20 1.910216e-02
      endloop
   endfacet
   facet normal 0.000000e+00 -1.000000e+00 0.000000e+00
      outer loop
         vertex 4.600000e-03 1.836970e-20 2.700000e-02
         vertex 3.575692e-03 1.836970e-20 1.965784e-02
         vertex 3.599999e-03 1.836970e-20 1.938000e-02
      endloop
   endfacet
   facet normal -9.961947e-01 0.000000e+00 -8.715556e-02
      outer loop
         vertex 3.575692e-03 9.000000e-03 1.965784e-02
         vertex 3.599999e-03 9.000000e-03 1.938000e-02
         vertex 3.599999e-03 1.836970e-20 1.938000e-02
      endloop
   endfacet
   facet normal -9.961947e-01 0.000000e+00 -8.715556e-02
      outer loop
         vertex 3.575692e-03 1.836970e-20 1.965784e-02
         vertex 3.575692e-03 9.000000e-03 1.965784e-02
         vertex 3.599999e-03 1.836970e-20 1.938000e-02
      endloop
   endfacet
   facet normal -0.000000e+00 -1.000000e+00 0.000000e+00
      outer loop
         vertex 1.322431e-02 1.836970e-20 1.965784e-02
         vertex 1.220000e-02 1.836970e-20 2.700000e-02
         vertex 1.320000e-02 1.836970e-20 1.938000e-02
      endloop
   endfacet
   facet normal 9.961947e-01 0.000000e+00 -8.715556e-02
      outer loop
         vertex 1.320000e-02 9.000000e-03 1.938000e-02
         vertex 1.322431e-02 1.836970e-20 1.965784e-02
         vertex 1.320000e-02 1.836970e-20 1.938000e-02
      endloop
   endfacet
   facet normal 9.961947e-01 0.000000e+00 8.715541e-02
      outer loop
         vertex 1.322431e-02 9.000000e-03 1.910216e-02
         vertex 1.320000e-02 9.000000e-03 1.938000e-02
         vertex 1.320000e-02 1.836970e-20 1.938000e-02
      endloop
   endfacet
   facet normal 0.000000e+00 -1.000000e+00 0.000000e+00
      outer loop
         vertex 4.600000e-03 1.836970e-20 2.700000e-02
         vertex 3.503508e-03 1.836970e-20 1.992723e-02
         vertex 3.575692e-03 1.836970e-20 1.965784e-02
      endloop
   endfacet
   facet normal -9.659260e-01 0.000000e+00 -2.588183e-01
      outer loop
         vertex 3.503508e-03 9.000000e-03 1.992723e-02
         vertex 3.575692e-03 9.000000e-03 1.965784e-02
         vertex 3.575692e-03 1.836970e-20 1.965784e-02
      endloop
   endfacet
   facet normal -9.659260e-01 0.000000e+00 -2.588183e-01
      outer loop
         vertex 3.503508e-03 1.836970e-20 1.992723e-02
         vertex 3.503508e-03 9.000000e-03 1.992723e-02
         vertex 3.575692e-03 1.836970e-20 1.965784e-02
      endloop
   endfacet
   facet normal -0.000000e+00 -1.000000e+00 0.000000e+00
      outer loop
         vertex 1.329649e-02 1.836970e-20 1.992723e-02
         vertex 1.220000e-02 1.836970e-20 2.700000e-02
         vertex 1.322431e-02 1.836970e-20 1.965784e-02
      endloop
   endfacet
   facet normal 9.659260e-01 0.000000e+00 -2.588183e-01
      outer loop
         vertex 1.322431e-02 9.000000e-03 1.965784e-02
         vertex 1.329649e-02 1.836970e-20 1.992723e-02
         vertex 1.322431e-02 1.836970e-20 1.965784e-02
      endloop
   endfacet
   facet normal 9.961947e-01 0.000000e+00 -8.715556e-02
      outer loop
         vertex 1.320000e-02 9.000000e-03 1.938000e-02
         vertex 1.322431e-02 9.000000e-03 1.965784e-02
         vertex 1.322431e-02 1.836970e-20 1.965784e-02
      endloop
   endfacet
   facet normal 0.000000e+00 -1.000000e+00 0.000000e+00
      outer loop
         vertex 4.600000e-03 1.836970e-20 2.700000e-02
         vertex 3.385640e-03 1.836970e-20 2.018000e-02
         vertex 3.503508e-03 1.836970e-20 1.992723e-02
      endloop
   endfacet
   facet normal -9.063077e-01 0.000000e+00 -4.226185e-01
      outer loop
         vertex 3.385640e-03 9.000000e-03 2.018000e-02
         vertex 3.503508e-03 9.000000e-03 1.992723e-02
         vertex 3.503508e-03 1.836970e-20 1.992723e-02
      endloop
   endfacet
   facet normal -9.063077e-01 0.000000e+00 -4.226185e-01
      outer loop
         vertex 3.385640e-03 1.836970e-20 2.018000e-02
         vertex 3.385640e-03 9.000000e-03 2.018000e-02
         vertex 3.503508e-03 1.836970e-20 1.992723e-02
      endloop
   endfacet
   facet normal -0.000000e+00 -1.000000e+00 0.000000e+00
      outer loop
         vertex 1.341436e-02 1.836970e-20 2.018000e-02
         vertex 1.220000e-02 1.836970e-20 2.700000e-02
         vertex 1.329649e-02 1.836970e-20 1.992723e-02
      endloop
   endfacet
   facet normal 9.063077e-01 0.000000e+00 -4.226185e-01
      outer loop
         vertex 1.329649e-02 9.000000e-03 1.992723e-02
         vertex 1.341436e-02 1.836970e-20 2.018000e-02
         vertex 1.329649e-02 1.836970e-20 1.992723e-02
      endloop
   endfacet
   facet normal 9.659260e-01 0.000000e+00 -2.588183e-01
      outer loop
         vertex 1.322431e-02 9.000000e-03 1.965784e-02
         vertex 1.329649e-02 9.000000e-03 1.992723e-02
         vertex 1.329649e-02 1.836970e-20 1.992723e-02
      endloop
   endfacet
   facet normal 0.000000e+00 -1.000000e+00 0.000000e+00
      outer loop
         vertex 4.600000e-03 1.836970e-20 2.700000e-02
         vertex 3.225671e-03 1.836970e-20 2.040846e-02
         vertex 3.385640e-03 1.836970e-20 2.018000e-02
      endloop
   endfacet
   facet normal -8.191517e-01 0.000000e+00 -5.735769e-01
      outer loop
         vertex 3.225671e-03 9.000000e-03 2.040846e-02
         vertex 3.385640e-03 9.000000e-03 2.018000e-02
         vertex 3.385640e-03 1.836970e-20 2.018000e-02
      endloop
   endfacet
   facet normal -8.191517e-01 0.000000e+00 -5.735769e-01
      outer loop
         vertex 3.225671e-03 1.836970e-20 2.040846e-02
         vertex 3.225671e-03 9.000000e-03 2.040846e-02
         vertex 3.385640e-03 1.836970e-20 2.018000e-02
      endloop
   endfacet
   facet normal -0.000000e+00 -1.000000e+00 0.000000e+00
      outer loop
         vertex 1.357433e-02 1.836970e-20 2.040846e-02
         vertex 1.220000e-02 1.836970e-20 2.700000e-02
         vertex 1.341436e-02 1.836970e-20 2.018000e-02
      endloop
   endfacet
   facet normal 8.191517e-01 0.000000e+00 -5.735769e-01
      outer loop
         vertex 1.341436e-02 9.000000e-03 2.018000e-02
         vertex 1.357433e-02 1.836970e-20 2.040846e-02
         vertex 1.341436e-02 1.836970e-20 2.018000e-02
      endloop
   endfacet
   facet normal 9.063077e-01 0.000000e+00 -4.226185e-01
      outer loop
         vertex 1.329649e-02 9.000000e-03 1.992723e-02
         vertex 1.341436e-02 9.000000e-03 2.018000e-02
         vertex 1.341436e-02 1.836970e-20 2.018000e-02
      endloop
   endfacet
   facet normal 0.000000e+00 -1.000000e+00 0.000000e+00
      outer loop
         vertex 4.600000e-03 1.836970e-20 2.700000e-02
         vertex 3.028460e-03 1.836970e-20 2.060567e-02
         vertex 3.225671e-03 1.836970e-20 2.040846e-02
      endloop
   endfacet
   facet normal -7.071076e-01 0.000000e+00 -7.071059e-01
      outer loop
         vertex 3.028460e-03 9.000000e-03 2.060567e-02
         vertex 3.225671e-03 9.000000e-03 2.040846e-02
         vertex 3.225671e-03 1.836970e-20 2.040846e-02
      endloop
   endfacet
   facet normal -7.071076e-01 0.000000e+00 -7.071059e-01
      outer loop
         vertex 3.028460e-03 1.836970e-20 2.060567e-02
         vertex 3.028460e-03 9.000000e-03 2.060567e-02
         vertex 3.225671e-03 1.836970e-20 2.040846e-02
      endloop
   endfacet
   facet normal -0.000000e+00 -1.000000e+00 0.000000e+00
      outer loop
         vertex 1.377154e-02 1.836970e-20 2.060567e-02
         vertex 1.220000e-02 1.836970e-20 2.700000e-02
         vertex 1.357433e-02 1.836970e-20 2.040846e-02
      endloop
   endfacet
   facet normal 7.071076e-01 0.000000e+00 -7.071059e-01
      outer loop
         vertex 1.357433e-02 9.000000e-03 2.040846e-02
         vertex 1.377154e-02 1.836970e-20 2.060567e-02
         vertex 1.357433e-02 1.836970e-20 2.040846e-02
      endloop
   endfacet
   facet normal 8.191517e-01 0.000000e+00 -5.735769e-01
      outer loop
         vertex 1.341436e-02 9.000000e-03 2.018000e-02
         vertex 1.357433e-02 9.000000e-03 2.040846e-02
         vertex 1.357433e-02 1.836970e-20 2.040846e-02
      endloop
   endfacet
   facet normal 0.000000e+00 -1.000000e+00 0.000000e+00
      outer loop
         vertex 4.600000e-03 1.836970e-20 2.700000e-02
         vertex 2.800000e-03 1.836970e-20 2.076564e-02
         vertex 3.028460e-03 1.836970e-20 2.060567e-02
      endloop
   endfacet
   facet normal -5.735757e-01 0.000000e+00 -8.191525e-01
      outer loop
         vertex 2.800000e-03 9.000000e-03 2.076564e-02
         vertex 3.028460e-03 9.000000e-03 2.060567e-02
         vertex 3.028460e-03 1.836970e-20 2.060567e-02
      endloop
   endfacet
   facet normal -5.735757e-01 0.000000e+00 -8.191525e-01
      outer loop
         vertex 2.800000e-03 1.836970e-20 2.076564e-02
         vertex 2.800000e-03 9.000000e-03 2.076564e-02
         vertex 3.028460e-03 1.836970e-20 2.060567e-02
      endloop
   endfacet
   facet normal -0.000000e+00 -1.000000e+00 0.000000e+00
      outer loop
         vertex 1.400000e-02 1.836970e-20 2.076564e-02
         vertex 1.220000e-02 1.836970e-20 2.700000e-02
         vertex 1.377154e-02 1.836970e-20 2.060567e-02
      endloop
   endfacet
   facet normal 5.735757e-01 0.000000e+00 -8.191525e-01
      outer loop
         vertex 1.377154e-02 9.000000e-03 2.060567e-02
         vertex 1.400000e-02 1.836970e-20 2.076564e-02
         vertex 1.377154e-02 1.836970e-20 2.060567e-02
      endloop
   endfacet
   facet normal 7.071076e-01 0.000000e+00 -7.071059e-01
      outer loop
         vertex 1.357433e-02 9.000000e-03 2.040846e-02
         vertex 1.377154e-02 9.000000e-03 2.060567e-02
         vertex 1.377154e-02 1.836970e-20 2.060567e-02
      endloop
   endfacet
   facet normal 0.000000e+00 -1.000000e+00 0.000000e+00
      outer loop
         vertex 4.600000e-03 1.836970e-20 2.700000e-02
         vertex 2.547232e-03 1.836970e-20 2.088351e-02
         vertex 2.800000e-03 1.836970e-20 2.076564e-02
      endloop
   endfacet
   facet normal -4.226185e-01 0.000000e+00 -9.063077e-01
      outer loop
         vertex 2.547232e-03 9.000000e-03 2.088351e-02
         vertex 2.800000e-03 9.000000e-03 2.076564e-02
         vertex 2.800000e-03 1.836970e-20 2.076564e-02
      endloop
   endfacet
   facet normal -4.226185e-01 0.000000e+00 -9.063077e-01
      outer loop
         vertex 2.547232e-03 1.836970e-20 2.088351e-02
         vertex 2.547232e-03 9.000000e-03 2.088351e-02
         vertex 2.800000e-03 1.836970e-20 2.076564e-02
      endloop
   endfacet
   facet normal -0.000000e+00 -1.000000e+00 0.000000e+00
      outer loop
         vertex 1.425277e-02 1.836970e-20 2.088351e-02
         vertex 1.220000e-02 1.836970e-20 2.700000e-02
         vertex 1.400000e-02 1.836970e-20 2.076564e-02
      endloop
   endfacet
   facet normal 4.226185e-01 0.000000e+00 -9.063077e-01
      outer loop
         vertex 1.400000e-02 9.000000e-03 2.076564e-02
         vertex 1.425277e-02 1.836970e-20 2.088351e-02
         vertex 1.400000e-02 1.836970e-20 2.076564e-02
      endloop
   endfacet
   facet normal 5.735757e-01 0.000000e+00 -8.191525e-01
      outer loop
         vertex 1.377154e-02 9.000000e-03 2.060567e-02
         vertex 1.400000e-02 9.000000e-03 2.076564e-02
         vertex 1.400000e-02 1.836970e-20 2.076564e-02
      endloop
   endfacet
   facet normal 0.000000e+00 -1.000000e+00 0.000000e+00
      outer loop
         vertex 4.600000e-03 1.836970e-20 2.700000e-02
         vertex 2.277837e-03 1.836970e-20 2.095569e-02
         vertex 2.547232e-03 1.836970e-20 2.088351e-02
      endloop
   endfacet
   facet normal -2.588198e-01 0.000000e+00 -9.659256e-01
      outer loop
         vertex 2.277837e-03 9.000000e-03 2.095569e-02
         vertex 2.547232e-03 9.000000e-03 2.088351e-02
         vertex 2.547232e-03 1.836970e-20 2.088351e-02
      endloop
   endfacet
   facet normal -2.588198e-01 0.000000e+00 -9.659256e-01
      outer loop
         vertex 2.277837e-03 1.836970e-20 2.095569e-02
         vertex 2.277837e-03 9.000000e-03 2.095569e-02
         vertex 2.547232e-03 1.836970e-20 2.088351e-02
      endloop
   endfacet
   facet normal -0.000000e+00 -1.000000e+00 0.000000e+00
      outer loop
         vertex 1.452216e-02 1.836970e-20 2.095569e-02
         vertex 1.220000e-02 1.836970e-20 2.700000e-02
         vertex 1.425277e-02 1.836970e-20 2.088351e-02
      endloop
   endfacet
   facet normal 2.588198e-01 0.000000e+00 -9.659256e-01
      outer loop
         vertex 1.425277e-02 9.000000e-03 2.088351e-02
         vertex 1.452216e-02 1.836970e-20 2.095569e-02
         vertex 1.425277e-02 1.836970e-20 2.088351e-02
      endloop
   endfacet
   facet normal 4.226185e-01 0.000000e+00 -9.063077e-01
      outer loop
         vertex 1.400000e-02 9.000000e-03 2.076564e-02
         vertex 1.425277e-02 9.000000e-03 2.088351e-02
         vertex 1.425277e-02 1.836970e-20 2.088351e-02
      endloop
   endfacet
   facet normal 0.000000e+00 -1.000000e+00 0.000000e+00
      outer loop
         vertex 4.600000e-03 1.836970e-20 2.700000e-02
         vertex 2.000000e-03 1.836970e-20 2.098000e-02
         vertex 2.277837e-03 1.836970e-20 2.095569e-02
      endloop
   endfacet
   facet normal -8.715556e-02 0.000000e+00 -9.961947e-01
      outer loop
         vertex 2.000000e-03 9.000000e-03 2.098000e-02
         vertex 2.277837e-03 9.000000e-03 2.095569e-02
         vertex 2.277837e-03 1.836970e-20 2.095569e-02
      endloop
   endfacet
   facet normal -8.715556e-02 0.000000e+00 -9.961947e-01
      outer loop
         vertex 2.000000e-03 1.836970e-20 2.098000e-02
         vertex 2.000000e-03 9.000000e-03 2.098000e-02
         vertex 2.277837e-03 1.836970e-20 2.095569e-02
      endloop
   endfacet
   facet normal -0.000000e+00 -1.000000e+00 0.000000e+00
      outer loop
         vertex 1.480000e-02 1.836970e-20 2.098000e-02
         vertex 1.220000e-02 1.836970e-20 2.700000e-02
         vertex 1.452216e-02 1.836970e-20 2.095569e-02
      endloop
   endfacet
   facet normal 8.715556e-02 0.000000e+00 -9.961947e-01
      outer loop
         vertex 1.452216e-02 9.000000e-03 2.095569e-02
         vertex 1.480000e-02 1.836970e-20 2.098000e-02
         vertex 1.452216e-02 1.836970e-20 2.095569e-02
      endloop
   endfacet
   facet normal 2.588198e-01 0.000000e+00 -9.659256e-01
      outer loop
         vertex 1.425277e-02 9.000000e-03 2.088351e-02
         vertex 1.452216e-02 9.000000e-03 2.095569e-02
         vertex 1.452216e-02 1.836970e-20 2.095569e-02
      endloop
   endfacet
   facet normal -1.000000e+00 0.000000e+00 0.000000e+00
      outer loop
         vertex 0.000000e+00 1.836970e-20 2.700000e-02
         vertex 0.000000e+00 9.000000e-03 2.700000e-02
         vertex 0.000000e+00 1.836970e-20 2.098000e-02
      endloop
   endfacet
   facet normal -1.000000e+00 0.000000e+00 -0.000000e+00
      outer loop
         vertex 0.000000e+00 9.000000e-03 2.700000e-02
         vertex 0.000000e+00 9.000000e-03 2.098000e-02
         vertex 0.000000e+00 1.836970e-20 2.098000e-02
      endloop
   endfacet
   facet normal -0.000000e+00 -1.000000e+00 0.000000e+00
      outer loop
         vertex 4.600000e-03 1.836970e-20 2.700000e-02
         vertex 0.000000e+00 1.836970e-20 2.700000e-02
         vertex 0.000000e+00 1.836970e-20 2.098000e-02
      endloop
   endfacet
   facet normal 0.000000e+00 -1.000000e+00 0.000000e+00
      outer loop
         vertex 2.000000e-03 1.836970e-20 2.098000e-02
         vertex 4.600000e-03 1.836970e-20 2.700000e-02
         vertex 0.000000e+00 1.836970e-20 2.098000e-02
      endloop
   endfacet
   facet normal 0.000000e+00 0.000000e+00 -1.000000e+00
      outer loop
         vertex 0.000000e+00 9.000000e-03 2.098000e-02
         vertex 2.000000e-03 9.000000e-03 2.098000e-02
         vertex 0.000000e+00 1.836970e-20 2.098000e-02
      endloop
   endfacet
   facet normal 0.000000e+00 -0.000000e+00 -1.000000e+00
      outer loop
         vertex 2.000000e-03 9.000000e-03 2.098000e-02
         vertex 2.000000e-03 1.836970e-20 2.098000e-02
         vertex 0.000000e+00 1.836970e-20 2.098000e-02
      endloop
   endfacet
   facet normal 0.000000e+00 -1.000000e+00 0.000000e+00
      outer loop
         vertex 1.680000e-02 1.836970e-20 2.098000e-02
         vertex 1.680000e-02 1.836970e-20 2.700000e-02
         vertex 1.480000e-02 1.836970e-20 2.098000e-02
      endloop
   endfacet
   facet normal -0.000000e+00 -1.000000e+00 0.000000e+00
      outer loop
         vertex 1.680000e-02 1.836970e-20 2.700000e-02
         vertex 1.220000e-02 1.836970e-20 2.700000e-02
         vertex 1.480000e-02 1.836970e-20 2.098000e-02
      endloop
   endfacet
   facet normal 8.715556e-02 0.000000e+00 -9.961947e-01
      outer loop
         vertex 1.452216e-02 9.000000e-03 2.095569e-02
         vertex 1.480000e-02 9.000000e-03 2.098000e-02
         vertex 1.480000e-02 1.836970e-20 2.098000e-02
      endloop
   endfacet
   facet normal 0.000000e+00 0.000000e+00 -1.000000e+00
      outer loop
         vertex 1.480000e-02 9.000000e-03 2.098000e-02
         vertex 1.680000e-02 1.836970e-20 2.098000e-02
         vertex 1.480000e-02 1.836970e-20 2.098000e-02
      endloop
   endfacet
   facet normal 1.000000e+00 0.000000e+00 -0.000000e+00
      outer loop
         vertex 1.680000e-02 9.000000e-03 2.098000e-02
         vertex 1.680000e-02 9.000000e-03 2.700000e-02
         vertex 1.680000e-02 1.836970e-20 2.098000e-02
      endloop
   endfacet
   facet normal 1.000000e+00 0.000000e+00 0.000000e+00
      outer loop
         vertex 1.680000e-02 9.000000e-03 2.700000e-02
         vertex 1.680000e-02 1.836970e-20 2.700000e-02
         vertex 1.680000e-02 1.836970e-20 2.098000e-02
      endloop
   endfacet
   facet normal 0.000000e+00 0.000000e+00 -1.000000e+00
      outer loop
         vertex 1.480000e-02 9.000000e-03 2.098000e-02
         vertex 1.680000e-02 9.000000e-03 2.098000e-02
         vertex 1.680000e-02 1.836970e-20 2.098000e-02
      endloop
   endfacet
   facet normal 0.000000e+00 0.000000e+00 1.000000e+00
      outer loop
         vertex 4.600000e-03 1.836970e-20 2.700000e-02
         vertex 0.000000e+00 9.000000e-03 2.700000e-02
         vertex 0.000000e+00 1.836970e-20 2.700000e-02
      endloop
   endfacet
   facet normal 0.000000e+00 0.000000e+00 1.000000e+00
      outer loop
         vertex 4.600000e-03 2.000000e-03 2.700000e-02
         vertex 0.000000e+00 9.000000e-03 2.700000e-02
         vertex 4.600000e-03 1.836970e-20 2.700000e-02
      endloop
   endfacet
   facet normal 0.000000e+00 0.000000e+00 1.000000e+00
      outer loop
         vertex 1.680000e-02 1.836970e-20 2.700000e-02
         vertex 1.220000e-02 2.000000e-03 2.700000e-02
         vertex 1.220000e-02 1.836970e-20 2.700000e-02
      endloop
   endfacet
   facet normal 0.000000e+00 0.000000e+00 1.000000e+00
      outer loop
         vertex 1.680000e-02 9.000000e-03 2.700000e-02
         vertex 1.220000e-02 2.000000e-03 2.700000e-02
         vertex 1.680000e-02 1.836970e-20 2.700000e-02
      endloop
   endfacet
   facet normal 0.000000e+00 -0.000000e+00 -1.000000e+00
      outer loop
         vertex 1.085000e-02 4.500000e-03 0.000000e+00
         vertex 1.085000e-02 2.000000e-03 0.000000e+00
         vertex 5.950000e-03 2.000000e-03 0.000000e+00
      endloop
   endfacet
   facet normal 0.000000e+00 0.000000e+00 -1.000000e+00
      outer loop
         vertex 5.950000e-03 4.500000e-03 0.000000e+00
         vertex 1.085000e-02 4.500000e-03 0.000000e+00
         vertex 5.950000e-03 2.000000e-03 0.000000e+00
      endloop
   endfacet
   facet normal -0.000000e+00 -1.000000e+00 0.000000e+00
      outer loop
         vertex 7.014359e-03 2.000000e-03 3.200000e-03
         vertex 6.896492e-03 2.000000e-03 3.452769e-03
         vertex 5.950000e-03 2.000000e-03 0.000000e+00
      endloop
   endfacet
   facet normal 0.000000e+00 -1.000000e+00 0.000000e+00
      outer loop
         vertex 1.085000e-02 2.000000e-03 0.000000e+00
         vertex 8.400000e-03 2.000000e-03 2.400001e-03
         vertex 5.950000e-03 2.000000e-03 0.000000e+00
      endloop
   endfacet
   facet normal -0.000000e+00 -1.000000e+00 0.000000e+00
      outer loop
         vertex 8.400000e-03 2.000000e-03 2.400001e-03
         vertex 8.122163e-03 2.000000e-03 2.424308e-03
         vertex 5.950000e-03 2.000000e-03 0.000000e+00
      endloop
   endfacet
   facet normal -0.000000e+00 -1.000000e+00 0.000000e+00
      outer loop
         vertex 8.122163e-03 2.000000e-03 2.424308e-03
         vertex 7.852767e-03 2.000000e-03 2.496492e-03
         vertex 5.950000e-03 2.000000e-03 0.000000e+00
      endloop
   endfacet
   facet normal -0.000000e+00 -1.000000e+00 0.000000e+00
      outer loop
         vertex 7.852767e-03 2.000000e-03 2.496492e-03
         vertex 7.600000e-03 2.000000e-03 2.614359e-03
         vertex 5.950000e-03 2.000000e-03 0.000000e+00
      endloop
   endfacet
   facet normal -0.000000e+00 -1.000000e+00 0.000000e+00
      outer loop
         vertex 7.600000e-03 2.000000e-03 2.614359e-03
         vertex 7.371539e-03 2.000000e-03 2.774329e-03
         vertex 5.950000e-03 2.000000e-03 0.000000e+00
      endloop
   endfacet
   facet normal -0.000000e+00 -1.000000e+00 0.000000e+00
      outer loop
         vertex 7.371539e-03 2.000000e-03 2.774329e-03
         vertex 7.174329e-03 2.000000e-03 2.971540e-03
         vertex 5.950000e-03 2.000000e-03 0.000000e+00
      endloop
   endfacet
   facet normal -0.000000e+00 -1.000000e+00 0.000000e+00
      outer loop
         vertex 7.174329e-03 2.000000e-03 2.971540e-03
         vertex 7.014359e-03 2.000000e-03 3.200000e-03
         vertex 5.950000e-03 2.000000e-03 0.000000e+00
      endloop
   endfacet
   facet normal -0.000000e+00 -1.000000e+00 0.000000e+00
      outer loop
         vertex 6.896492e-03 2.000000e-03 3.452769e-03
         vertex 6.824307e-03 2.000000e-03 3.722163e-03
         vertex 5.950000e-03 2.000000e-03 0.000000e+00
      endloop
   endfacet
   facet normal -0.000000e+00 -1.000000e+00 0.000000e+00
      outer loop
         vertex 6.824307e-03 2.000000e-03 3.722163e-03
         vertex 6.800000e-03 2.000000e-03 4.000001e-03
         vertex 5.950000e-03 2.000000e-03 0.000000e+00
      endloop
   endfacet
   facet normal -0.000000e+00 -1.000000e+00 0.000000e+00
      outer loop
         vertex 6.800000e-03 2.000000e-03 4.000001e-03
         vertex 5.950000e-03 2.000000e-03 1.500000e-02
         vertex 5.950000e-03 2.000000e-03 0.000000e+00
      endloop
   endfacet
   facet normal -1.000000e+00 0.000000e+00 -0.000000e+00
      outer loop
         vertex 5.950000e-03 4.500000e-03 1.500000e-02
         vertex 5.950000e-03 4.500000e-03 0.000000e+00
         vertex 5.950000e-03 2.000000e-03 0.000000e+00
      endloop
   endfacet
   facet normal -1.000000e+00 0.000000e+00 0.000000e+00
      outer loop
         vertex 5.950000e-03 2.000000e-03 1.500000e-02
         vertex 5.950000e-03 4.500000e-03 1.500000e-02
         vertex 5.950000e-03 2.000000e-03 0.000000e+00
      endloop
   endfacet
   facet normal 0.000000e+00 -1.000000e+00 -0.000000e+00
      outer loop
         vertex 8.947232e-03 2.000000e-03 2.496492e-03
         vertex 8.677837e-03 2.000000e-03 2.424308e-03
         vertex 1.085000e-02 2.000000e-03 0.000000e+00
      endloop
   endfacet
   facet normal 0.000000e+00 -1.000000e+00 -0.000000e+00
      outer loop
         vertex 8.677837e-03 2.000000e-03 2.424308e-03
         vertex 8.400000e-03 2.000000e-03 2.400001e-03
         vertex 1.085000e-02 2.000000e-03 0.000000e+00
      endloop
   endfacet
   facet normal 0.000000e+00 -1.000000e+00 -0.000000e+00
      outer loop
         vertex 9.903508e-03 2.000000e-03 3.452769e-03
         vertex 9.785640e-03 2.000000e-03 3.200000e-03
         vertex 1.085000e-02 2.000000e-03 0.000000e+00
      endloop
   endfacet
   facet normal 0.000000e+00 -1.000000e+00 -0.000000e+00
      outer loop
         vertex 9.785640e-03 2.000000e-03 3.200000e-03
         vertex 9.625671e-03 2.000000e-03 2.971540e-03
         vertex 1.085000e-02 2.000000e-03 0.000000e+00
      endloop
   endfacet
   facet normal 0.000000e+00 -1.000000e+00 -0.000000e+00
      outer loop
         vertex 9.625671e-03 2.000000e-03 2.971540e-03
         vertex 9.428460e-03 2.000000e-03 2.774329e-03
         vertex 1.085000e-02 2.000000e-03 0.000000e+00
      endloop
   endfacet
   facet normal 0.000000e+00 -1.000000e+00 -0.000000e+00
      outer loop
         vertex 9.428460e-03 2.000000e-03 2.774329e-03
         vertex 9.200000e-03 2.000000e-03 2.614359e-03
         vertex 1.085000e-02 2.000000e-03 0.000000e+00
      endloop
   endfacet
   facet normal 0.000000e+00 -1.000000e+00 -0.000000e+00
      outer loop
         vertex 9.200000e-03 2.000000e-03 2.614359e-03
         vertex 8.947232e-03 2.000000e-03 2.496492e-03
         vertex 1.085000e-02 2.000000e-03 0.000000e+00
      endloop
   endfacet
   facet normal 0.000000e+00 -1.000000e+00 -0.000000e+00
      outer loop
         vertex 1.085000e-02 2.000000e-03 1.500000e-02
         vertex 1.000000e-02 2.000000e-03 4.000001e-03
         vertex 1.085000e-02 2.000000e-03 0.000000e+00
      endloop
   endfacet
   facet normal 0.000000e+00 -1.000000e+00 -0.000000e+00
      outer loop
         vertex 1.000000e-02 2.000000e-03 4.000001e-03
         vertex 9.975692e-03 2.000000e-03 3.722163e-03
         vertex 1.085000e-02 2.000000e-03 0.000000e+00
      endloop
   endfacet
   facet normal 0.000000e+00 -1.000000e+00 -0.000000e+00
      outer loop
         vertex 9.975692e-03 2.000000e-03 3.722163e-03
         vertex 9.903508e-03 2.000000e-03 3.452769e-03
         vertex 1.085000e-02 2.000000e-03 0.000000e+00
      endloop
   endfacet
   facet normal 1.000000e+00 0.000000e+00 -0.000000e+00
      outer loop
         vertex 1.085000e-02 4.500000e-03 0.000000e+00
         vertex 1.085000e-02 4.500000e-03 1.500000e-02
         vertex 1.085000e-02 2.000000e-03 0.000000e+00
      endloop
   endfacet
   facet normal 1.000000e+00 0.000000e+00 0.000000e+00
      outer loop
         vertex 1.085000e-02 4.500000e-03 1.500000e-02
         vertex 1.085000e-02 2.000000e-03 1.500000e-02
         vertex 1.085000e-02 2.000000e-03 0.000000e+00
      endloop
   endfacet
   facet normal -8.715547e-02 0.000000e+00 9.961947e-01
      outer loop
         vertex 8.677837e-03 9.000000e-03 2.424308e-03
         vertex 8.400000e-03 9.000000e-03 2.400001e-03
         vertex 8.400000e-03 2.000000e-03 2.400001e-03
      endloop
   endfacet
   facet normal -8.715547e-02 0.000000e+00 9.961947e-01
      outer loop
         vertex 8.677837e-03 2.000000e-03 2.424308e-03
         vertex 8.677837e-03 9.000000e-03 2.424308e-03
         vertex 8.400000e-03 2.000000e-03 2.400001e-03
      endloop
   endfacet
   facet normal 8.715547e-02 0.000000e+00 9.961947e-01
      outer loop
         vertex 8.400000e-03 9.000000e-03 2.400001e-03
         vertex 8.122163e-03 2.000000e-03 2.424308e-03
         vertex 8.400000e-03 2.000000e-03 2.400001e-03
      endloop
   endfacet
   facet normal 2.588184e-01 0.000000e+00 9.659260e-01
      outer loop
         vertex 8.122163e-03 9.000000e-03 2.424308e-03
         vertex 7.852767e-03 2.000000e-03 2.496492e-03
         vertex 8.122163e-03 2.000000e-03 2.424308e-03
      endloop
   endfacet
   facet normal 8.715547e-02 0.000000e+00 9.961947e-01
      outer loop
         vertex 8.400000e-03 9.000000e-03 2.400001e-03
         vertex 8.122163e-03 9.000000e-03 2.424308e-03
         vertex 8.122163e-03 2.000000e-03 2.424308e-03
      endloop
   endfacet
   facet normal -2.588184e-01 0.000000e+00 9.659260e-01
      outer loop
         vertex 8.947232e-03 9.000000e-03 2.496492e-03
         vertex 8.677837e-03 9.000000e-03 2.424308e-03
         vertex 8.677837e-03 2.000000e-03 2.424308e-03
      endloop
   endfacet
   facet normal -2.588184e-01 0.000000e+00 9.659260e-01
      outer loop
         vertex 8.947232e-03 2.000000e-03 2.496492e-03
         vertex 8.947232e-03 9.000000e-03 2.496492e-03
         vertex 8.677837e-03 2.000000e-03 2.424308e-03
      endloop
   endfacet
   facet normal 4.226174e-01 0.000000e+00 9.063082e-01
      outer loop
         vertex 7.852767e-03 9.000000e-03 2.496492e-03
         vertex 7.600000e-03 2.000000e-03 2.614359e-03
         vertex 7.852767e-03 2.000000e-03 2.496492e-03
      endloop
   endfacet
   facet normal 2.588184e-01 0.000000e+00 9.659260e-01
      outer loop
         vertex 8.122163e-03 9.000000e-03 2.424308e-03
         vertex 7.852767e-03 9.000000e-03 2.496492e-03
         vertex 7.852767e-03 2.000000e-03 2.496492e-03
      endloop
   endfacet
   facet normal -4.226174e-01 0.000000e+00 9.063082e-01
      outer loop
         vertex 9.200000e-03 9.000000e-03 2.614359e-03
         vertex 8.947232e-03 9.000000e-03 2.496492e-03
         vertex 8.947232e-03 2.000000e-03 2.496492e-03
      endloop
   endfacet
   facet normal -4.226174e-01 0.000000e+00 9.063082e-01
      outer loop
         vertex 9.200000e-03 2.000000e-03 2.614359e-03
         vertex 9.200000e-03 9.000000e-03 2.614359e-03
         vertex 8.947232e-03 2.000000e-03 2.496492e-03
      endloop
   endfacet
   facet normal 5.735764e-01 0.000000e+00 8.191521e-01
      outer loop
         vertex 7.600000e-03 9.000000e-03 2.614359e-03
         vertex 7.371539e-03 2.000000e-03 2.774329e-03
         vertex 7.600000e-03 2.000000e-03 2.614359e-03
      endloop
   endfacet
   facet normal 4.226174e-01 0.000000e+00 9.063082e-01
      outer loop
         vertex 7.852767e-03 9.000000e-03 2.496492e-03
         vertex 7.600000e-03 9.000000e-03 2.614359e-03
         vertex 7.600000e-03 2.000000e-03 2.614359e-03
      endloop
   endfacet
   facet normal -5.735764e-01 0.000000e+00 8.191521e-01
      outer loop
         vertex 9.428460e-03 9.000000e-03 2.774329e-03
         vertex 9.200000e-03 9.000000e-03 2.614359e-03
         vertex 9.200000e-03 2.000000e-03 2.614359e-03
      endloop
   endfacet
   facet normal -5.735764e-01 0.000000e+00 8.191521e-01
      outer loop
         vertex 9.428460e-03 2.000000e-03 2.774329e-03
         vertex 9.428460e-03 9.000000e-03 2.774329e-03
         vertex 9.200000e-03 2.000000e-03 2.614359e-03
      endloop
   endfacet
   facet normal 7.071074e-01 0.000000e+00 7.071062e-01
      outer loop
         vertex 7.371539e-03 9.000000e-03 2.774329e-03
         vertex 7.174329e-03 2.000000e-03 2.971540e-03
         vertex 7.371539e-03 2.000000e-03 2.774329e-03
      endloop
   endfacet
   facet normal 5.735764e-01 0.000000e+00 8.191521e-01
      outer loop
         vertex 7.600000e-03 9.000000e-03 2.614359e-03
         vertex 7.371539e-03 9.000000e-03 2.774329e-03
         vertex 7.371539e-03 2.000000e-03 2.774329e-03
      endloop
   endfacet
   facet normal -7.071074e-01 0.000000e+00 7.071062e-01
      outer loop
         vertex 9.625671e-03 9.000000e-03 2.971540e-03
         vertex 9.428460e-03 9.000000e-03 2.774329e-03
         vertex 9.428460e-03 2.000000e-03 2.774329e-03
      endloop
   endfacet
   facet normal -7.071074e-01 0.000000e+00 7.071062e-01
      outer loop
         vertex 9.625671e-03 2.000000e-03 2.971540e-03
         vertex 9.625671e-03 9.000000e-03 2.971540e-03
         vertex 9.428460e-03 2.000000e-03 2.774329e-03
      endloop
   endfacet
   facet normal 8.191517e-01 0.000000e+00 5.735769e-01
      outer loop
         vertex 7.174329e-03 9.000000e-03 2.971540e-03
         vertex 7.014359e-03 2.000000e-03 3.200000e-03
         vertex 7.174329e-03 2.000000e-03 2.971540e-03
      endloop
   endfacet
   facet normal 7.071074e-01 0.000000e+00 7.071062e-01
      outer loop
         vertex 7.371539e-03 9.000000e-03 2.774329e-03
         vertex 7.174329e-03 9.000000e-03 2.971540e-03
         vertex 7.174329e-03 2.000000e-03 2.971540e-03
      endloop
   endfacet
   facet normal -8.191517e-01 0.000000e+00 5.735769e-01
      outer loop
         vertex 9.785640e-03 9.000000e-03 3.200000e-03
         vertex 9.625671e-03 9.000000e-03 2.971540e-03
         vertex 9.625671e-03 2.000000e-03 2.971540e-03
      endloop
   endfacet
   facet normal -8.191517e-01 0.000000e+00 5.735769e-01
      outer loop
         vertex 9.785640e-03 2.000000e-03 3.200000e-03
         vertex 9.785640e-03 9.000000e-03 3.200000e-03
         vertex 9.625671e-03 2.000000e-03 2.971540e-03
      endloop
   endfacet
   facet normal 9.063083e-01 0.000000e+00 4.226172e-01
      outer loop
         vertex 7.014359e-03 9.000000e-03 3.200000e-03
         vertex 6.896492e-03 2.000000e-03 3.452769e-03
         vertex 7.014359e-03 2.000000e-03 3.200000e-03
      endloop
   endfacet
   facet normal 8.191517e-01 0.000000e+00 5.735769e-01
      outer loop
         vertex 7.174329e-03 9.000000e-03 2.971540e-03
         vertex 7.014359e-03 9.000000e-03 3.200000e-03
         vertex 7.014359e-03 2.000000e-03 3.200000e-03
      endloop
   endfacet
   facet normal -9.063083e-01 0.000000e+00 4.226172e-01
      outer loop
         vertex 9.903508e-03 9.000000e-03 3.452769e-03
         vertex 9.785640e-03 9.000000e-03 3.200000e-03
         vertex 9.785640e-03 2.000000e-03 3.200000e-03
      endloop
   endfacet
   facet normal -9.063083e-01 0.000000e+00 4.226172e-01
      outer loop
         vertex 9.903508e-03 2.000000e-03 3.452769e-03
         vertex 9.903508e-03 9.000000e-03 3.452769e-03
         vertex 9.785640e-03 2.000000e-03 3.200000e-03
      endloop
   endfacet
   facet normal 9.659256e-01 0.000000e+00 2.588199e-01
      outer loop
         vertex 6.896492e-03 9.000000e-03 3.452769e-03
         vertex 6.824307e-03 2.000000e-03 3.722163e-03
         vertex 6.896492e-03 2.000000e-03 3.452769e-03
      endloop
   endfacet
   facet normal 9.063083e-01 0.000000e+00 4.226172e-01
      outer loop
         vertex 7.014359e-03 9.000000e-03 3.200000e-03
         vertex 6.896492e-03 9.000000e-03 3.452769e-03
         vertex 6.896492e-03 2.000000e-03 3.452769e-03
      endloop
   endfacet
   facet normal -9.659256e-01 0.000000e+00 2.588199e-01
      outer loop
         vertex 9.975692e-03 9.000000e-03 3.722163e-03
         vertex 9.903508e-03 9.000000e-03 3.452769e-03
         vertex 9.903508e-03 2.000000e-03 3.452769e-03
      endloop
   endfacet
   facet normal -9.659256e-01 0.000000e+00 2.588199e-01
      outer loop
         vertex 9.975692e-03 2.000000e-03 3.722163e-03
         vertex 9.975692e-03 9.000000e-03 3.722163e-03
         vertex 9.903508e-03 2.000000e-03 3.452769e-03
      endloop
   endfacet
   facet normal 9.961947e-01 0.000000e+00 8.715527e-02
      outer loop
         vertex 6.824307e-03 9.000000e-03 3.722163e-03
         vertex 6.800000e-03 2.000000e-03 4.000001e-03
         vertex 6.824307e-03 2.000000e-03 3.722163e-03
      endloop
   endfacet
   facet normal 9.659256e-01 0.000000e+00 2.588199e-01
      outer loop
         vertex 6.896492e-03 9.000000e-03 3.452769e-03
         vertex 6.824307e-03 9.000000e-03 3.722163e-03
         vertex 6.824307e-03 2.000000e-03 3.722163e-03
      endloop
   endfacet
   facet normal -9.961947e-01 0.000000e+00 8.715527e-02
      outer loop
         vertex 1.000000e-02 9.000000e-03 4.000001e-03
         vertex 9.975692e-03 9.000000e-03 3.722163e-03
         vertex 9.975692e-03 2.000000e-03 3.722163e-03
      endloop
   endfacet
   facet normal -9.961947e-01 0.000000e+00 8.715527e-02
      outer loop
         vertex 1.000000e-02 2.000000e-03 4.000001e-03
         vertex 1.000000e-02 9.000000e-03 4.000001e-03
         vertex 9.975692e-03 2.000000e-03 3.722163e-03
      endloop
   endfacet
   facet normal -0.000000e+00 -1.000000e+00 0.000000e+00
      outer loop
         vertex 6.824307e-03 2.000000e-03 4.277837e-03
         vertex 5.950000e-03 2.000000e-03 1.500000e-02
         vertex 6.800000e-03 2.000000e-03 4.000001e-03
      endloop
   endfacet
   facet normal 9.961947e-01 0.000000e+00 -8.715556e-02
      outer loop
         vertex 6.800000e-03 9.000000e-03 4.000001e-03
         vertex 6.824307e-03 2.000000e-03 4.277837e-03
         vertex 6.800000e-03 2.000000e-03 4.000001e-03
      endloop
   endfacet
   facet normal 9.961947e-01 0.000000e+00 8.715527e-02
      outer loop
         vertex 6.824307e-03 9.000000e-03 3.722163e-03
         vertex 6.800000e-03 9.000000e-03 4.000001e-03
         vertex 6.800000e-03 2.000000e-03 4.000001e-03
      endloop
   endfacet
   facet normal 0.000000e+00 -1.000000e+00 0.000000e+00
      outer loop
         vertex 1.085000e-02 2.000000e-03 1.500000e-02
         vertex 9.975692e-03 2.000000e-03 4.277837e-03
         vertex 1.000000e-02 2.000000e-03 4.000001e-03
      endloop
   endfacet
   facet normal -9.961947e-01 0.000000e+00 -8.715556e-02
      outer loop
         vertex 9.975692e-03 9.000000e-03 4.277837e-03
         vertex 1.000000e-02 9.000000e-03 4.000001e-03
         vertex 1.000000e-02 2.000000e-03 4.000001e-03
      endloop
   endfacet
   facet normal -9.961947e-01 0.000000e+00 -8.715556e-02
      outer loop
         vertex 9.975692e-03 2.000000e-03 4.277837e-03
         vertex 9.975692e-03 9.000000e-03 4.277837e-03
         vertex 1.000000e-02 2.000000e-03 4.000001e-03
      endloop
   endfacet
   facet normal -0.000000e+00 -1.000000e+00 0.000000e+00
      outer loop
         vertex 6.896492e-03 2.000000e-03 4.547233e-03
         vertex 5.950000e-03 2.000000e-03 1.500000e-02
         vertex 6.824307e-03 2.000000e-03 4.277837e-03
      endloop
   endfacet
   facet normal 9.659258e-01 0.000000e+00 -2.588190e-01
      outer loop
         vertex 6.824307e-03 9.000000e-03 4.277837e-03
         vertex 6.896492e-03 2.000000e-03 4.547233e-03
         vertex 6.824307e-03 2.000000e-03 4.277837e-03
      endloop
   endfacet
   facet normal 9.961947e-01 0.000000e+00 -8.715556e-02
      outer loop
         vertex 6.800000e-03 9.000000e-03 4.000001e-03
         vertex 6.824307e-03 9.000000e-03 4.277837e-03
         vertex 6.824307e-03 2.000000e-03 4.277837e-03
      endloop
   endfacet
   facet normal 0.000000e+00 -1.000000e+00 0.000000e+00
      outer loop
         vertex 1.085000e-02 2.000000e-03 1.500000e-02
         vertex 9.903508e-03 2.000000e-03 4.547233e-03
         vertex 9.975692e-03 2.000000e-03 4.277837e-03
      endloop
   endfacet
   facet normal -9.659258e-01 0.000000e+00 -2.588190e-01
      outer loop
         vertex 9.903508e-03 9.000000e-03 4.547233e-03
         vertex 9.975692e-03 9.000000e-03 4.277837e-03
         vertex 9.975692e-03 2.000000e-03 4.277837e-03
      endloop
   endfacet
   facet normal -9.659258e-01 0.000000e+00 -2.588190e-01
      outer loop
         vertex 9.903508e-03 2.000000e-03 4.547233e-03
         vertex 9.903508e-03 9.000000e-03 4.547233e-03
         vertex 9.975692e-03 2.000000e-03 4.277837e-03
      endloop
   endfacet
   facet normal -0.000000e+00 -1.000000e+00 0.000000e+00
      outer loop
         vertex 7.014359e-03 2.000000e-03 4.800000e-03
         vertex 5.950000e-03 2.000000e-03 1.500000e-02
         vertex 6.896492e-03 2.000000e-03 4.547233e-03
      endloop
   endfacet
   facet normal 9.063077e-01 0.000000e+00 -4.226185e-01
      outer loop
         vertex 6.896492e-03 9.000000e-03 4.547233e-03
         vertex 7.014359e-03 2.000000e-03 4.800000e-03
         vertex 6.896492e-03 2.000000e-03 4.547233e-03
      endloop
   endfacet
   facet normal 9.659258e-01 0.000000e+00 -2.588190e-01
      outer loop
         vertex 6.824307e-03 9.000000e-03 4.277837e-03
         vertex 6.896492e-03 9.000000e-03 4.547233e-03
         vertex 6.896492e-03 2.000000e-03 4.547233e-03
      endloop
   endfacet
   facet normal 0.000000e+00 -1.000000e+00 0.000000e+00
      outer loop
         vertex 1.085000e-02 2.000000e-03 1.500000e-02
         vertex 9.785640e-03 2.000000e-03 4.800000e-03
         vertex 9.903508e-03 2.000000e-03 4.547233e-03
      endloop
   endfacet
   facet normal -9.063077e-01 0.000000e+00 -4.226185e-01
      outer loop
         vertex 9.785640e-03 9.000000e-03 4.800000e-03
         vertex 9.903508e-03 9.000000e-03 4.547233e-03
         vertex 9.903508e-03 2.000000e-03 4.547233e-03
      endloop
   endfacet
   facet normal -9.063077e-01 0.000000e+00 -4.226185e-01
      outer loop
         vertex 9.785640e-03 2.000000e-03 4.800000e-03
         vertex 9.785640e-03 9.000000e-03 4.800000e-03
         vertex 9.903508e-03 2.000000e-03 4.547233e-03
      endloop
   endfacet
   facet normal -0.000000e+00 -1.000000e+00 0.000000e+00
      outer loop
         vertex 7.174329e-03 2.000000e-03 5.028460e-03
         vertex 5.950000e-03 2.000000e-03 1.500000e-02
         vertex 7.014359e-03 2.000000e-03 4.800000e-03
      endloop
   endfacet
   facet normal 8.191517e-01 0.000000e+00 -5.735769e-01
      outer loop
         vertex 7.014359e-03 9.000000e-03 4.800000e-03
         vertex 7.174329e-03 2.000000e-03 5.028460e-03
         vertex 7.014359e-03 2.000000e-03 4.800000e-03
      endloop
   endfacet
   facet normal 9.063077e-01 0.000000e+00 -4.226185e-01
      outer loop
         vertex 6.896492e-03 9.000000e-03 4.547233e-03
         vertex 7.014359e-03 9.000000e-03 4.800000e-03
         vertex 7.014359e-03 2.000000e-03 4.800000e-03
      endloop
   endfacet
   facet normal 0.000000e+00 -1.000000e+00 0.000000e+00
      outer loop
         vertex 1.085000e-02 2.000000e-03 1.500000e-02
         vertex 9.625671e-03 2.000000e-03 5.028460e-03
         vertex 9.785640e-03 2.000000e-03 4.800000e-03
      endloop
   endfacet
   facet normal -8.191517e-01 0.000000e+00 -5.735769e-01
      outer loop
         vertex 9.625671e-03 9.000000e-03 5.028460e-03
         vertex 9.785640e-03 9.000000e-03 4.800000e-03
         vertex 9.785640e-03 2.000000e-03 4.800000e-03
      endloop
   endfacet
   facet normal -8.191517e-01 0.000000e+00 -5.735769e-01
      outer loop
         vertex 9.625671e-03 2.000000e-03 5.028460e-03
         vertex 9.625671e-03 9.000000e-03 5.028460e-03
         vertex 9.785640e-03 2.000000e-03 4.800000e-03
      endloop
   endfacet
   facet normal -0.000000e+00 -1.000000e+00 0.000000e+00
      outer loop
         vertex 7.371539e-03 2.000000e-03 5.225671e-03
         vertex 5.950000e-03 2.000000e-03 1.500000e-02
         vertex 7.174329e-03 2.000000e-03 5.028460e-03
      endloop
   endfacet
   facet normal 7.071074e-01 0.000000e+00 -7.071062e-01
      outer loop
         vertex 7.174329e-03 9.000000e-03 5.028460e-03
         vertex 7.371539e-03 2.000000e-03 5.225671e-03
         vertex 7.174329e-03 2.000000e-03 5.028460e-03
      endloop
   endfacet
   facet normal 8.191517e-01 0.000000e+00 -5.735769e-01
      outer loop
         vertex 7.014359e-03 9.000000e-03 4.800000e-03
         vertex 7.174329e-03 9.000000e-03 5.028460e-03
         vertex 7.174329e-03 2.000000e-03 5.028460e-03
      endloop
   endfacet
   facet normal 0.000000e+00 -1.000000e+00 0.000000e+00
      outer loop
         vertex 1.085000e-02 2.000000e-03 1.500000e-02
         vertex 9.428460e-03 2.000000e-03 5.225671e-03
         vertex 9.625671e-03 2.000000e-03 5.028460e-03
      endloop
   endfacet
   facet normal -7.071074e-01 0.000000e+00 -7.071062e-01
      outer loop
         vertex 9.428460e-03 9.000000e-03 5.225671e-03
         vertex 9.625671e-03 9.000000e-03 5.028460e-03
         vertex 9.625671e-03 2.000000e-03 5.028460e-03
      endloop
   endfacet
   facet normal -7.071074e-01 0.000000e+00 -7.071062e-01
      outer loop
         vertex 9.428460e-03 2.000000e-03 5.225671e-03
         vertex 9.428460e-03 9.000000e-03 5.225671e-03
         vertex 9.625671e-03 2.000000e-03 5.028460e-03
      endloop
   endfacet
   facet normal -0.000000e+00 -1.000000e+00 0.000000e+00
      outer loop
         vertex 7.600000e-03 2.000000e-03 5.385641e-03
         vertex 5.950000e-03 2.000000e-03 1.500000e-02
         vertex 7.371539e-03 2.000000e-03 5.225671e-03
      endloop
   endfacet
   facet normal 5.735764e-01 0.000000e+00 -8.191521e-01
      outer loop
         vertex 7.371539e-03 9.000000e-03 5.225671e-03
         vertex 7.600000e-03 2.000000e-03 5.385641e-03
         vertex 7.371539e-03 2.000000e-03 5.225671e-03
      endloop
   endfacet
   facet normal 7.071074e-01 0.000000e+00 -7.071062e-01
      outer loop
         vertex 7.174329e-03 9.000000e-03 5.028460e-03
         vertex 7.371539e-03 9.000000e-03 5.225671e-03
         vertex 7.371539e-03 2.000000e-03 5.225671e-03
      endloop
   endfacet
   facet normal 0.000000e+00 -1.000000e+00 0.000000e+00
      outer loop
         vertex 1.085000e-02 2.000000e-03 1.500000e-02
         vertex 9.200000e-03 2.000000e-03 5.385641e-03
         vertex 9.428460e-03 2.000000e-03 5.225671e-03
      endloop
   endfacet
   facet normal -5.735764e-01 0.000000e+00 -8.191521e-01
      outer loop
         vertex 9.200000e-03 9.000000e-03 5.385641e-03
         vertex 9.428460e-03 9.000000e-03 5.225671e-03
         vertex 9.428460e-03 2.000000e-03 5.225671e-03
      endloop
   endfacet
   facet normal -5.735764e-01 0.000000e+00 -8.191521e-01
      outer loop
         vertex 9.200000e-03 2.000000e-03 5.385641e-03
         vertex 9.200000e-03 9.000000e-03 5.385641e-03
         vertex 9.428460e-03 2.000000e-03 5.225671e-03
      endloop
   endfacet
   facet normal -0.000000e+00 -1.000000e+00 0.000000e+00
      outer loop
         vertex 7.852767e-03 2.000000e-03 5.503508e-03
         vertex 5.950000e-03 2.000000e-03 1.500000e-02
         vertex 7.600000e-03 2.000000e-03 5.385641e-03
      endloop
   endfacet
   facet normal 4.226174e-01 0.000000e+00 -9.063082e-01
      outer loop
         vertex 7.600000e-03 9.000000e-03 5.385641e-03
         vertex 7.852767e-03 2.000000e-03 5.503508e-03
         vertex 7.600000e-03 2.000000e-03 5.385641e-03
      endloop
   endfacet
   facet normal 5.735764e-01 0.000000e+00 -8.191521e-01
      outer loop
         vertex 7.371539e-03 9.000000e-03 5.225671e-03
         vertex 7.600000e-03 9.000000e-03 5.385641e-03
         vertex 7.600000e-03 2.000000e-03 5.385641e-03
      endloop
   endfacet
   facet normal 0.000000e+00 -1.000000e+00 0.000000e+00
      outer loop
         vertex 1.085000e-02 2.000000e-03 1.500000e-02
         vertex 8.947232e-03 2.000000e-03 5.503508e-03
         vertex 9.200000e-03 2.000000e-03 5.385641e-03
      endloop
   endfacet
   facet normal -4.226174e-01 0.000000e+00 -9.063082e-01
      outer loop
         vertex 8.947232e-03 9.000000e-03 5.503508e-03
         vertex 9.200000e-03 9.000000e-03 5.385641e-03
         vertex 9.200000e-03 2.000000e-03 5.385641e-03
      endloop
   endfacet
   facet normal -4.226174e-01 0.000000e+00 -9.063082e-01
      outer loop
         vertex 8.947232e-03 2.000000e-03 5.503508e-03
         vertex 8.947232e-03 9.000000e-03 5.503508e-03
         vertex 9.200000e-03 2.000000e-03 5.385641e-03
      endloop
   endfacet
   facet normal -0.000000e+00 -1.000000e+00 0.000000e+00
      outer loop
         vertex 8.122163e-03 2.000000e-03 5.575693e-03
         vertex 5.950000e-03 2.000000e-03 1.500000e-02
         vertex 7.852767e-03 2.000000e-03 5.503508e-03
      endloop
   endfacet
   facet normal 2.588215e-01 0.000000e+00 -9.659252e-01
      outer loop
         vertex 7.852767e-03 9.000000e-03 5.503508e-03
         vertex 8.122163e-03 2.000000e-03 5.575693e-03
         vertex 7.852767e-03 2.000000e-03 5.503508e-03
      endloop
   endfacet
   facet normal 4.226174e-01 0.000000e+00 -9.063082e-01
      outer loop
         vertex 7.600000e-03 9.000000e-03 5.385641e-03
         vertex 7.852767e-03 9.000000e-03 5.503508e-03
         vertex 7.852767e-03 2.000000e-03 5.503508e-03
      endloop
   endfacet
   facet normal 0.000000e+00 -1.000000e+00 0.000000e+00
      outer loop
         vertex 1.085000e-02 2.000000e-03 1.500000e-02
         vertex 8.677837e-03 2.000000e-03 5.575693e-03
         vertex 8.947232e-03 2.000000e-03 5.503508e-03
      endloop
   endfacet
   facet normal -2.588215e-01 0.000000e+00 -9.659252e-01
      outer loop
         vertex 8.677837e-03 9.000000e-03 5.575693e-03
         vertex 8.947232e-03 9.000000e-03 5.503508e-03
         vertex 8.947232e-03 2.000000e-03 5.503508e-03
      endloop
   endfacet
   facet normal -2.588215e-01 0.000000e+00 -9.659252e-01
      outer loop
         vertex 8.677837e-03 2.000000e-03 5.575693e-03
         vertex 8.677837e-03 9.000000e-03 5.575693e-03
         vertex 8.947232e-03 2.000000e-03 5.503508e-03
      endloop
   endfacet
   facet normal -0.000000e+00 -1.000000e+00 0.000000e+00
      outer loop
         vertex 1.085000e-02 2.000000e-03 1.500000e-02
         vertex 5.950000e-03 2.000000e-03 1.500000e-02
         vertex 8.122163e-03 2.000000e-03 5.575693e-03
      endloop
   endfacet
   facet normal -0.000000e+00 -1.000000e+00 0.000000e+00
      outer loop
         vertex 8.400000e-03 2.000000e-03 5.600001e-03
         vertex 1.085000e-02 2.000000e-03 1.500000e-02
         vertex 8.122163e-03 2.000000e-03 5.575693e-03
      endloop
   endfacet
   facet normal 8.715547e-02 0.000000e+00 -9.961947e-01
      outer loop
         vertex 8.122163e-03 9.000000e-03 5.575693e-03
         vertex 8.400000e-03 2.000000e-03 5.600001e-03
         vertex 8.122163e-03 2.000000e-03 5.575693e-03
      endloop
   endfacet
   facet normal 2.588215e-01 0.000000e+00 -9.659252e-01
      outer loop
         vertex 7.852767e-03 9.000000e-03 5.503508e-03
         vertex 8.122163e-03 9.000000e-03 5.575693e-03
         vertex 8.122163e-03 2.000000e-03 5.575693e-03
      endloop
   endfacet
   facet normal 0.000000e+00 -1.000000e+00 0.000000e+00
      outer loop
         vertex 1.085000e-02 2.000000e-03 1.500000e-02
         vertex 8.400000e-03 2.000000e-03 5.600001e-03
         vertex 8.677837e-03 2.000000e-03 5.575693e-03
      endloop
   endfacet
   facet normal -8.715547e-02 0.000000e+00 -9.961947e-01
      outer loop
         vertex 8.400000e-03 9.000000e-03 5.600001e-03
         vertex 8.677837e-03 9.000000e-03 5.575693e-03
         vertex 8.677837e-03 2.000000e-03 5.575693e-03
      endloop
   endfacet
   facet normal -8.715547e-02 0.000000e+00 -9.961947e-01
      outer loop
         vertex 8.400000e-03 2.000000e-03 5.600001e-03
         vertex 8.400000e-03 9.000000e-03 5.600001e-03
         vertex 8.677837e-03 2.000000e-03 5.575693e-03
      endloop
   endfacet
   facet normal 8.715547e-02 0.000000e+00 -9.961947e-01
      outer loop
         vertex 8.122163e-03 9.000000e-03 5.575693e-03
         vertex 8.400000e-03 9.000000e-03 5.600001e-03
         vertex 8.400000e-03 2.000000e-03 5.600001e-03
      endloop
   endfacet
   facet normal 0.000000e+00 -1.000000e+00 0.000000e+00
      outer loop
         vertex 5.950000e-03 2.000000e-03 1.500000e-02
         vertex 4.600000e-03 2.000000e-03 2.700000e-02
         vertex 4.600000e-03 2.000000e-03 1.500000e-02
      endloop
   endfacet
   facet normal 0.000000e+00 0.000000e+00 -1.000000e+00
      outer loop
         vertex 0.000000e+00 4.500000e-03 1.500000e-02
         vertex 5.950000e-03 2.000000e-03 1.500000e-02
         vertex 4.600000e-03 2.000000e-03 1.500000e-02
      endloop
   endfacet
   facet normal 0.000000e+00 -1.000000e+00 0.000000e+00
      outer loop
         vertex 1.085000e-02 2.000000e-03 1.500000e-02
         vertex 4.600000e-03 2.000000e-03 2.700000e-02
         vertex 5.950000e-03 2.000000e-03 1.500000e-02
      endloop
   endfacet
   facet normal 0.000000e+00 0.000000e+00 -1.000000e+00
      outer loop
         vertex 0.000000e+00 4.500000e-03 1.500000e-02
         vertex 5.950000e-03 4.500000e-03 1.500000e-02
         vertex 5.950000e-03 2.000000e-03 1.500000e-02
      endloop
   endfacet
   facet normal 0.000000e+00 -1.000000e+00 0.000000e+00
      outer loop
         vertex 1.220000e-02 2.000000e-03 1.500000e-02
         vertex 1.220000e-02 2.000000e-03 2.700000e-02
         vertex 1.085000e-02 2.000000e-03 1.500000e-02
      endloop
   endfacet
   facet normal -0.000000e+00 -1.000000e+00 0.000000e+00
      outer loop
         vertex 1.220000e-02 2.000000e-03 2.700000e-02
         vertex 4.600000e-03 2.000000e-03 2.700000e-02
         vertex 1.085000e-02 2.000000e-03 1.500000e-02
      endloop
   endfacet
   facet normal 0.000000e+00 0.000000e+00 -1.000000e+00
      outer loop
         vertex 1.085000e-02 4.500000e-03 1.500000e-02
         vertex 1.220000e-02 2.000000e-03 1.500000e-02
         vertex 1.085000e-02 2.000000e-03 1.500000e-02
      endloop
   endfacet
   facet normal 0.000000e+00 0.000000e+00 -1.000000e+00
      outer loop
         vertex 1.085000e-02 4.500000e-03 1.500000e-02
         vertex 1.680000e-02 4.500000e-03 1.500000e-02
         vertex 1.220000e-02 2.000000e-03 1.500000e-02
      endloop
   endfacet
   facet normal 0.000000e+00 -0.000000e+00 1.000000e+00
      outer loop
         vertex 1.220000e-02 2.000000e-03 2.700000e-02
         vertex 1.680000e-02 9.000000e-03 2.700000e-02
         vertex 4.600000e-03 2.000000e-03 2.700000e-02
      endloop
   endfacet
   facet normal 0.000000e+00 0.000000e+00 1.000000e+00
      outer loop
         vertex 1.680000e-02 9.000000e-03 2.700000e-02
         vertex 0.000000e+00 9.000000e-03 2.700000e-02
         vertex 4.600000e-03 2.000000e-03 2.700000e-02
      endloop
   endfacet
   facet normal -1.000000e+00 0.000000e+00 0.000000e+00
      outer loop
         vertex 0.000000e+00 4.500000e-03 1.500000e-02
         vertex 0.000000e+00 9.000000e-03 1.778000e-02
         vertex 0.000000e+00 4.500000e-03 0.000000e+00
      endloop
   endfacet
   facet normal -1.000000e+00 0.000000e+00 -0.000000e+00
      outer loop
         vertex 0.000000e+00 9.000000e-03 1.778000e-02
         vertex 0.000000e+00 9.000000e-03 0.000000e+00
         vertex 0.000000e+00 4.500000e-03 0.000000e+00
      endloop
   endfacet
   facet normal 0.000000e+00 0.000000e+00 -1.000000e+00
      outer loop
         vertex 0.000000e+00 9.000000e-03 0.000000e+00
         vertex 5.950000e-03 4.500000e-03 0.000000e+00
         vertex 0.000000e+00 4.500000e-03 0.000000e+00
      endloop
   endfacet
   facet normal 0.000000e+00 -1.000000e+00 0.000000e+00
      outer loop
         vertex 5.950000e-03 4.500000e-03 0.000000e+00
         vertex 5.950000e-03 4.500000e-03 1.500000e-02
         vertex 0.000000e+00 4.500000e-03 0.000000e+00
      endloop
   endfacet
   facet normal -0.000000e+00 -1.000000e+00 0.000000e+00
      outer loop
         vertex 5.950000e-03 4.500000e-03 1.500000e-02
         vertex 0.000000e+00 4.500000e-03 1.500000e-02
         vertex 0.000000e+00 4.500000e-03 0.000000e+00
      endloop
   endfacet
   facet normal 0.000000e+00 0.000000e+00 -1.000000e+00
      outer loop
         vertex 1.680000e-02 9.000000e-03 0.000000e+00
         vertex 1.085000e-02 4.500000e-03 0.000000e+00
         vertex 5.950000e-03 4.500000e-03 0.000000e+00
      endloop
   endfacet
   facet normal 0.000000e+00 0.000000e+00 -1.000000e+00
      outer loop
         vertex 0.000000e+00 9.000000e-03 0.000000e+00
         vertex 1.680000e-02 9.000000e-03 0.000000e+00
         vertex 5.950000e-03 4.500000e-03 0.000000e+00
      endloop
   endfacet
   facet normal 0.000000e+00 -0.000000e+00 -1.000000e+00
      outer loop
         vertex 1.680000e-02 9.000000e-03 0.000000e+00
         vertex 1.680000e-02 4.500000e-03 0.000000e+00
         vertex 1.085000e-02 4.500000e-03 0.000000e+00
      endloop
   endfacet
   facet normal -0.000000e+00 -1.000000e+00 0.000000e+00
      outer loop
         vertex 1.680000e-02 4.500000e-03 1.500000e-02
         vertex 1.085000e-02 4.500000e-03 1.500000e-02
         vertex 1.085000e-02 4.500000e-03 0.000000e+00
      endloop
   endfacet
   facet normal 0.000000e+00 -1.000000e+00 0.000000e+00
      outer loop
         vertex 1.680000e-02 4.500000e-03 0.000000e+00
         vertex 1.680000e-02 4.500000e-03 1.500000e-02
         vertex 1.085000e-02 4.500000e-03 0.000000e+00
      endloop
   endfacet
   facet normal 1.000000e+00 0.000000e+00 0.000000e+00
      outer loop
         vertex 1.680000e-02 9.000000e-03 0.000000e+00
         vertex 1.680000e-02 4.500000e-03 1.500000e-02
         vertex 1.680000e-02 4.500000e-03 0.000000e+00
      endloop
   endfacet
   facet normal 1.000000e+00 0.000000e+00 -0.000000e+00
      outer loop
         vertex 1.680000e-02 9.000000e-03 0.000000e+00
         vertex 1.680000e-02 9.000000e-03 1.778000e-02
         vertex 1.680000e-02 4.500000e-03 1.500000e-02
      endloop
   endfacet
   facet normal 0.000000e+00 1.000000e+00 0.000000e+00
      outer loop
         vertex 7.014359e-03 9.000000e-03 3.200000e-03
         vertex 7.174329e-03 9.000000e-03 2.971540e-03
         vertex 0.000000e+00 9.000000e-03 0.000000e+00
      endloop
   endfacet
   facet normal 0.000000e+00 1.000000e+00 0.000000e+00
      outer loop
         vertex 7.174329e-03 9.000000e-03 2.971540e-03
         vertex 7.371539e-03 9.000000e-03 2.774329e-03
         vertex 0.000000e+00 9.000000e-03 0.000000e+00
      endloop
   endfacet
   facet normal 0.000000e+00 1.000000e+00 0.000000e+00
      outer loop
         vertex 7.371539e-03 9.000000e-03 2.774329e-03
         vertex 7.600000e-03 9.000000e-03 2.614359e-03
         vertex 0.000000e+00 9.000000e-03 0.000000e+00
      endloop
   endfacet
   facet normal 0.000000e+00 1.000000e+00 0.000000e+00
      outer loop
         vertex 7.600000e-03 9.000000e-03 2.614359e-03
         vertex 7.852767e-03 9.000000e-03 2.496492e-03
         vertex 0.000000e+00 9.000000e-03 0.000000e+00
      endloop
   endfacet
   facet normal 0.000000e+00 1.000000e+00 0.000000e+00
      outer loop
         vertex 6.800000e-03 9.000000e-03 4.000001e-03
         vertex 6.824307e-03 9.000000e-03 3.722163e-03
         vertex 0.000000e+00 9.000000e-03 0.000000e+00
      endloop
   endfacet
   facet normal 0.000000e+00 1.000000e+00 0.000000e+00
      outer loop
         vertex 6.824307e-03 9.000000e-03 3.722163e-03
         vertex 6.896492e-03 9.000000e-03 3.452769e-03
         vertex 0.000000e+00 9.000000e-03 0.000000e+00
      endloop
   endfacet
   facet normal 0.000000e+00 1.000000e+00 0.000000e+00
      outer loop
         vertex 6.896492e-03 9.000000e-03 3.452769e-03
         vertex 7.014359e-03 9.000000e-03 3.200000e-03
         vertex 0.000000e+00 9.000000e-03 0.000000e+00
      endloop
   endfacet
   facet normal 0.000000e+00 1.000000e+00 0.000000e+00
      outer loop
         vertex 0.000000e+00 9.000000e-03 1.778000e-02
         vertex 6.896492e-03 9.000000e-03 4.547233e-03
         vertex 0.000000e+00 9.000000e-03 0.000000e+00
      endloop
   endfacet
   facet normal 0.000000e+00 1.000000e+00 0.000000e+00
      outer loop
         vertex 6.896492e-03 9.000000e-03 4.547233e-03
         vertex 6.824307e-03 9.000000e-03 4.277837e-03
         vertex 0.000000e+00 9.000000e-03 0.000000e+00
      endloop
   endfacet
   facet normal 0.000000e+00 1.000000e+00 0.000000e+00
      outer loop
         vertex 6.824307e-03 9.000000e-03 4.277837e-03
         vertex 6.800000e-03 9.000000e-03 4.000001e-03
         vertex 0.000000e+00 9.000000e-03 0.000000e+00
      endloop
   endfacet
   facet normal 0.000000e+00 1.000000e+00 0.000000e+00
      outer loop
         vertex 7.852767e-03 9.000000e-03 2.496492e-03
         vertex 8.122163e-03 9.000000e-03 2.424308e-03
         vertex 0.000000e+00 9.000000e-03 0.000000e+00
      endloop
   endfacet
   facet normal 0.000000e+00 1.000000e+00 0.000000e+00
      outer loop
         vertex 8.122163e-03 9.000000e-03 2.424308e-03
         vertex 8.400000e-03 9.000000e-03 2.400001e-03
         vertex 0.000000e+00 9.000000e-03 0.000000e+00
      endloop
   endfacet
   facet normal 0.000000e+00 1.000000e+00 0.000000e+00
      outer loop
         vertex 8.400000e-03 9.000000e-03 2.400001e-03
         vertex 1.680000e-02 9.000000e-03 0.000000e+00
         vertex 0.000000e+00 9.000000e-03 0.000000e+00
      endloop
   endfacet
   facet normal -0.000000e+00 1.000000e+00 0.000000e+00
      outer loop
         vertex 8.947232e-03 9.000000e-03 2.496492e-03
         vertex 9.200000e-03 9.000000e-03 2.614359e-03
         vertex 1.680000e-02 9.000000e-03 0.000000e+00
      endloop
   endfacet
   facet normal -0.000000e+00 1.000000e+00 0.000000e+00
      outer loop
         vertex 9.785640e-03 9.000000e-03 3.200000e-03
         vertex 9.903508e-03 9.000000e-03 3.452769e-03
         vertex 1.680000e-02 9.000000e-03 0.000000e+00
      endloop
   endfacet
   facet normal -0.000000e+00 1.000000e+00 0.000000e+00
      outer loop
         vertex 9.200000e-03 9.000000e-03 2.614359e-03
         vertex 9.428460e-03 9.000000e-03 2.774329e-03
         vertex 1.680000e-02 9.000000e-03 0.000000e+00
      endloop
   endfacet
   facet normal -0.000000e+00 1.000000e+00 0.000000e+00
      outer loop
         vertex 9.428460e-03 9.000000e-03 2.774329e-03
         vertex 9.625671e-03 9.000000e-03 2.971540e-03
         vertex 1.680000e-02 9.000000e-03 0.000000e+00
      endloop
   endfacet
   facet normal -0.000000e+00 1.000000e+00 0.000000e+00
      outer loop
         vertex 9.625671e-03 9.000000e-03 2.971540e-03
         vertex 9.785640e-03 9.000000e-03 3.200000e-03
         vertex 1.680000e-02 9.000000e-03 0.000000e+00
      endloop
   endfacet
   facet normal -0.000000e+00 1.000000e+00 0.000000e+00
      outer loop
         vertex 9.903508e-03 9.000000e-03 3.452769e-03
         vertex 1.452216e-02 9.000000e-03 1.780431e-02
         vertex 1.680000e-02 9.000000e-03 0.000000e+00
      endloop
   endfacet
   facet normal 0.000000e+00 1.000000e+00 0.000000e+00
      outer loop
         vertex 1.452216e-02 9.000000e-03 1.780431e-02
         vertex 1.480000e-02 9.000000e-03 1.778000e-02
         vertex 1.680000e-02 9.000000e-03 0.000000e+00
      endloop
   endfacet
   facet normal -0.000000e+00 1.000000e+00 0.000000e+00
      outer loop
         vertex 1.480000e-02 9.000000e-03 1.778000e-02
         vertex 1.680000e-02 9.000000e-03 1.778000e-02
         vertex 1.680000e-02 9.000000e-03 0.000000e+00
      endloop
   endfacet
   facet normal -0.000000e+00 1.000000e+00 0.000000e+00
      outer loop
         vertex 8.400000e-03 9.000000e-03 2.400001e-03
         vertex 8.677837e-03 9.000000e-03 2.424308e-03
         vertex 1.680000e-02 9.000000e-03 0.000000e+00
      endloop
   endfacet
   facet normal -0.000000e+00 1.000000e+00 0.000000e+00
      outer loop
         vertex 8.677837e-03 9.000000e-03 2.424308e-03
         vertex 8.947232e-03 9.000000e-03 2.496492e-03
         vertex 1.680000e-02 9.000000e-03 0.000000e+00
      endloop
   endfacet
   facet normal -0.000000e+00 1.000000e+00 0.000000e+00
      outer loop
         vertex 9.975692e-03 9.000000e-03 3.722163e-03
         vertex 1.452216e-02 9.000000e-03 1.780431e-02
         vertex 9.903508e-03 9.000000e-03 3.452769e-03
      endloop
   endfacet
   facet normal -0.000000e+00 1.000000e+00 0.000000e+00
      outer loop
         vertex 1.000000e-02 9.000000e-03 4.000001e-03
         vertex 1.452216e-02 9.000000e-03 1.780431e-02
         vertex 9.975692e-03 9.000000e-03 3.722163e-03
      endloop
   endfacet
   facet normal -0.000000e+00 1.000000e+00 0.000000e+00
      outer loop
         vertex 9.975692e-03 9.000000e-03 4.277837e-03
         vertex 1.452216e-02 9.000000e-03 1.780431e-02
         vertex 1.000000e-02 9.000000e-03 4.000001e-03
      endloop
   endfacet
   facet normal -0.000000e+00 1.000000e+00 0.000000e+00
      outer loop
         vertex 9.903508e-03 9.000000e-03 4.547233e-03
         vertex 1.452216e-02 9.000000e-03 1.780431e-02
         vertex 9.975692e-03 9.000000e-03 4.277837e-03
      endloop
   endfacet
   facet normal 0.000000e+00 1.000000e+00 0.000000e+00
      outer loop
         vertex 0.000000e+00 9.000000e-03 1.778000e-02
         vertex 7.014359e-03 9.000000e-03 4.800000e-03
         vertex 6.896492e-03 9.000000e-03 4.547233e-03
      endloop
   endfacet
   facet normal -0.000000e+00 1.000000e+00 0.000000e+00
      outer loop
         vertex 9.785640e-03 9.000000e-03 4.800000e-03
         vertex 1.452216e-02 9.000000e-03 1.780431e-02
         vertex 9.903508e-03 9.000000e-03 4.547233e-03
      endloop
   endfacet
   facet normal 0.000000e+00 1.000000e+00 0.000000e+00
      outer loop
         vertex 0.000000e+00 9.000000e-03 1.778000e-02
         vertex 7.174329e-03 9.000000e-03 5.028460e-03
         vertex 7.014359e-03 9.000000e-03 4.800000e-03
      endloop
   endfacet
   facet normal -0.000000e+00 1.000000e+00 0.000000e+00
      outer loop
         vertex 9.625671e-03 9.000000e-03 5.028460e-03
         vertex 1.452216e-02 9.000000e-03 1.780431e-02
         vertex 9.785640e-03 9.000000e-03 4.800000e-03
      endloop
   endfacet
   facet normal 0.000000e+00 1.000000e+00 0.000000e+00
      outer loop
         vertex 0.000000e+00 9.000000e-03 1.778000e-02
         vertex 7.371539e-03 9.000000e-03 5.225671e-03
         vertex 7.174329e-03 9.000000e-03 5.028460e-03
      endloop
   endfacet
   facet normal -0.000000e+00 1.000000e+00 0.000000e+00
      outer loop
         vertex 9.428460e-03 9.000000e-03 5.225671e-03
         vertex 1.452216e-02 9.000000e-03 1.780431e-02
         vertex 9.625671e-03 9.000000e-03 5.028460e-03
      endloop
   endfacet
   facet normal -0.000000e+00 1.000000e+00 0.000000e+00
      outer loop
         vertex 0.000000e+00 9.000000e-03 1.778000e-02
         vertex 2.000000e-03 9.000000e-03 1.778000e-02
         vertex 7.371539e-03 9.000000e-03 5.225671e-03
      endloop
   endfacet
   facet normal -0.000000e+00 1.000000e+00 0.000000e+00
      outer loop
         vertex 2.000000e-03 9.000000e-03 1.778000e-02
         vertex 2.277837e-03 9.000000e-03 1.780431e-02
         vertex 7.371539e-03 9.000000e-03 5.225671e-03
      endloop
   endfacet
   facet normal 0.000000e+00 1.000000e+00 0.000000e+00
      outer loop
         vertex 2.277837e-03 9.000000e-03 1.780431e-02
         vertex 7.600000e-03 9.000000e-03 5.385641e-03
         vertex 7.371539e-03 9.000000e-03 5.225671e-03
      endloop
   endfacet
   facet normal -0.000000e+00 1.000000e+00 0.000000e+00
      outer loop
         vertex 9.200000e-03 9.000000e-03 5.385641e-03
         vertex 1.452216e-02 9.000000e-03 1.780431e-02
         vertex 9.428460e-03 9.000000e-03 5.225671e-03
      endloop
   endfacet
   facet normal -0.000000e+00 1.000000e+00 0.000000e+00
      outer loop
         vertex 2.277837e-03 9.000000e-03 1.780431e-02
         vertex 2.547232e-03 9.000000e-03 1.787649e-02
         vertex 7.600000e-03 9.000000e-03 5.385641e-03
      endloop
   endfacet
   facet normal 0.000000e+00 1.000000e+00 0.000000e+00
      outer loop
         vertex 2.547232e-03 9.000000e-03 1.787649e-02
         vertex 7.852767e-03 9.000000e-03 5.503508e-03
         vertex 7.600000e-03 9.000000e-03 5.385641e-03
      endloop
   endfacet
   facet normal -0.000000e+00 1.000000e+00 0.000000e+00
      outer loop
         vertex 8.947232e-03 9.000000e-03 5.503508e-03
         vertex 1.400000e-02 9.000000e-03 1.799436e-02
         vertex 9.200000e-03 9.000000e-03 5.385641e-03
      endloop
   endfacet
   facet normal 0.000000e+00 1.000000e+00 0.000000e+00
      outer loop
         vertex 1.400000e-02 9.000000e-03 1.799436e-02
         vertex 1.425277e-02 9.000000e-03 1.787649e-02
         vertex 9.200000e-03 9.000000e-03 5.385641e-03
      endloop
   endfacet
   facet normal 0.000000e+00 1.000000e+00 0.000000e+00
      outer loop
         vertex 1.425277e-02 9.000000e-03 1.787649e-02
         vertex 1.452216e-02 9.000000e-03 1.780431e-02
         vertex 9.200000e-03 9.000000e-03 5.385641e-03
      endloop
   endfacet
   facet normal -0.000000e+00 1.000000e+00 0.000000e+00
      outer loop
         vertex 2.547232e-03 9.000000e-03 1.787649e-02
         vertex 2.800000e-03 9.000000e-03 1.799436e-02
         vertex 7.852767e-03 9.000000e-03 5.503508e-03
      endloop
   endfacet
   facet normal 0.000000e+00 1.000000e+00 0.000000e+00
      outer loop
         vertex 2.800000e-03 9.000000e-03 1.799436e-02
         vertex 8.122163e-03 9.000000e-03 5.575693e-03
         vertex 7.852767e-03 9.000000e-03 5.503508e-03
      endloop
   endfacet
   facet normal -0.000000e+00 1.000000e+00 0.000000e+00
      outer loop
         vertex 8.677837e-03 9.000000e-03 5.575693e-03
         vertex 1.400000e-02 9.000000e-03 1.799436e-02
         vertex 8.947232e-03 9.000000e-03 5.503508e-03
      endloop
   endfacet
   facet normal 0.000000e+00 1.000000e+00 0.000000e+00
      outer loop
         vertex 3.575692e-03 9.000000e-03 1.910216e-02
         vertex 8.400000e-03 9.000000e-03 5.600001e-03
         vertex 8.122163e-03 9.000000e-03 5.575693e-03
      endloop
   endfacet
   facet normal -0.000000e+00 1.000000e+00 0.000000e+00
      outer loop
         vertex 2.800000e-03 9.000000e-03 1.799436e-02
         vertex 3.028460e-03 9.000000e-03 1.815433e-02
         vertex 8.122163e-03 9.000000e-03 5.575693e-03
      endloop
   endfacet
   facet normal -0.000000e+00 1.000000e+00 0.000000e+00
      outer loop
         vertex 3.028460e-03 9.000000e-03 1.815433e-02
         vertex 3.225671e-03 9.000000e-03 1.835154e-02
         vertex 8.122163e-03 9.000000e-03 5.575693e-03
      endloop
   endfacet
   facet normal -0.000000e+00 1.000000e+00 0.000000e+00
      outer loop
         vertex 3.225671e-03 9.000000e-03 1.835154e-02
         vertex 3.385640e-03 9.000000e-03 1.858000e-02
         vertex 8.122163e-03 9.000000e-03 5.575693e-03
      endloop
   endfacet
   facet normal -0.000000e+00 1.000000e+00 0.000000e+00
      outer loop
         vertex 3.385640e-03 9.000000e-03 1.858000e-02
         vertex 3.503508e-03 9.000000e-03 1.883277e-02
         vertex 8.122163e-03 9.000000e-03 5.575693e-03
      endloop
   endfacet
   facet normal -0.000000e+00 1.000000e+00 0.000000e+00
      outer loop
         vertex 3.503508e-03 9.000000e-03 1.883277e-02
         vertex 3.575692e-03 9.000000e-03 1.910216e-02
         vertex 8.122163e-03 9.000000e-03 5.575693e-03
      endloop
   endfacet
   facet normal -0.000000e+00 1.000000e+00 0.000000e+00
      outer loop
         vertex 8.400000e-03 9.000000e-03 5.600001e-03
         vertex 1.357433e-02 9.000000e-03 1.835154e-02
         vertex 8.677837e-03 9.000000e-03 5.575693e-03
      endloop
   endfacet
   facet normal 0.000000e+00 1.000000e+00 0.000000e+00
      outer loop
         vertex 1.357433e-02 9.000000e-03 1.835154e-02
         vertex 1.377154e-02 9.000000e-03 1.815433e-02
         vertex 8.677837e-03 9.000000e-03 5.575693e-03
      endloop
   endfacet
   facet normal 0.000000e+00 1.000000e+00 0.000000e+00
      outer loop
         vertex 1.377154e-02 9.000000e-03 1.815433e-02
         vertex 1.400000e-02 9.000000e-03 1.799436e-02
         vertex 8.677837e-03 9.000000e-03 5.575693e-03
      endloop
   endfacet
   facet normal -0.000000e+00 1.000000e+00 0.000000e+00
      outer loop
         vertex 3.575692e-03 9.000000e-03 1.910216e-02
         vertex 3.599999e-03 9.000000e-03 1.938000e-02
         vertex 8.400000e-03 9.000000e-03 5.600001e-03
      endloop
   endfacet
   facet normal -0.000000e+00 1.000000e+00 -0.000000e+00
      outer loop
         vertex 3.599999e-03 9.000000e-03 1.938000e-02
         vertex 3.575692e-03 9.000000e-03 1.965784e-02
         vertex 8.400000e-03 9.000000e-03 5.600001e-03
      endloop
   endfacet
   facet normal -0.000000e+00 1.000000e+00 -0.000000e+00
      outer loop
         vertex 3.575692e-03 9.000000e-03 1.965784e-02
         vertex 3.503508e-03 9.000000e-03 1.992723e-02
         vertex 8.400000e-03 9.000000e-03 5.600001e-03
      endloop
   endfacet
   facet normal 0.000000e+00 1.000000e+00 0.000000e+00
      outer loop
         vertex 3.503508e-03 9.000000e-03 1.992723e-02
         vertex 1.341436e-02 9.000000e-03 1.858000e-02
         vertex 8.400000e-03 9.000000e-03 5.600001e-03
      endloop
   endfacet
   facet normal 0.000000e+00 1.000000e+00 0.000000e+00
      outer loop
         vertex 1.341436e-02 9.000000e-03 1.858000e-02
         vertex 1.357433e-02 9.000000e-03 1.835154e-02
         vertex 8.400000e-03 9.000000e-03 5.600001e-03
      endloop
   endfacet
   facet normal 0.000000e+00 1.000000e+00 0.000000e+00
      outer loop
         vertex 3.503508e-03 9.000000e-03 1.992723e-02
         vertex 1.329649e-02 9.000000e-03 1.883277e-02
         vertex 1.341436e-02 9.000000e-03 1.858000e-02
      endloop
   endfacet
   facet normal 0.000000e+00 1.000000e+00 0.000000e+00
      outer loop
         vertex 3.503508e-03 9.000000e-03 1.992723e-02
         vertex 1.322431e-02 9.000000e-03 1.910216e-02
         vertex 1.329649e-02 9.000000e-03 1.883277e-02
      endloop
   endfacet
   facet normal 0.000000e+00 1.000000e+00 0.000000e+00
      outer loop
         vertex 3.503508e-03 9.000000e-03 1.992723e-02
         vertex 1.320000e-02 9.000000e-03 1.938000e-02
         vertex 1.322431e-02 9.000000e-03 1.910216e-02
      endloop
   endfacet
   facet normal 0.000000e+00 1.000000e+00 0.000000e+00
      outer loop
         vertex 3.503508e-03 9.000000e-03 1.992723e-02
         vertex 1.322431e-02 9.000000e-03 1.965784e-02
         vertex 1.320000e-02 9.000000e-03 1.938000e-02
      endloop
   endfacet
   facet normal 0.000000e+00 1.000000e+00 0.000000e+00
      outer loop
         vertex 2.277837e-03 9.000000e-03 2.095569e-02
         vertex 1.329649e-02 9.000000e-03 1.992723e-02
         vertex 1.322431e-02 9.000000e-03 1.965784e-02
      endloop
   endfacet
   facet normal -0.000000e+00 1.000000e+00 -0.000000e+00
      outer loop
         vertex 3.385640e-03 9.000000e-03 2.018000e-02
         vertex 3.225671e-03 9.000000e-03 2.040846e-02
         vertex 1.322431e-02 9.000000e-03 1.965784e-02
      endloop
   endfacet
   facet normal -0.000000e+00 1.000000e+00 -0.000000e+00
      outer loop
         vertex 3.225671e-03 9.000000e-03 2.040846e-02
         vertex 3.028460e-03 9.000000e-03 2.060567e-02
         vertex 1.322431e-02 9.000000e-03 1.965784e-02
      endloop
   endfacet
   facet normal -0.000000e+00 1.000000e+00 -0.000000e+00
      outer loop
         vertex 3.503508e-03 9.000000e-03 1.992723e-02
         vertex 3.385640e-03 9.000000e-03 2.018000e-02
         vertex 1.322431e-02 9.000000e-03 1.965784e-02
      endloop
   endfacet
   facet normal -0.000000e+00 1.000000e+00 -0.000000e+00
      outer loop
         vertex 3.028460e-03 9.000000e-03 2.060567e-02
         vertex 2.800000e-03 9.000000e-03 2.076564e-02
         vertex 1.322431e-02 9.000000e-03 1.965784e-02
      endloop
   endfacet
   facet normal -0.000000e+00 1.000000e+00 -0.000000e+00
      outer loop
         vertex 2.800000e-03 9.000000e-03 2.076564e-02
         vertex 2.547232e-03 9.000000e-03 2.088351e-02
         vertex 1.322431e-02 9.000000e-03 1.965784e-02
      endloop
   endfacet
   facet normal -0.000000e+00 1.000000e+00 -0.000000e+00
      outer loop
         vertex 2.547232e-03 9.000000e-03 2.088351e-02
         vertex 2.277837e-03 9.000000e-03 2.095569e-02
         vertex 1.322431e-02 9.000000e-03 1.965784e-02
      endloop
   endfacet
   facet normal -0.000000e+00 1.000000e+00 -0.000000e+00
      outer loop
         vertex 2.277837e-03 9.000000e-03 2.095569e-02
         vertex 0.000000e+00 9.000000e-03 2.700000e-02
         vertex 1.329649e-02 9.000000e-03 1.992723e-02
      endloop
   endfacet
   facet normal 0.000000e+00 1.000000e+00 0.000000e+00
      outer loop
         vertex 0.000000e+00 9.000000e-03 2.700000e-02
         vertex 1.341436e-02 9.000000e-03 2.018000e-02
         vertex 1.329649e-02 9.000000e-03 1.992723e-02
      endloop
   endfacet
   facet normal 0.000000e+00 1.000000e+00 0.000000e+00
      outer loop
         vertex 0.000000e+00 9.000000e-03 2.700000e-02
         vertex 1.357433e-02 9.000000e-03 2.040846e-02
         vertex 1.341436e-02 9.000000e-03 2.018000e-02
      endloop
   endfacet
   facet normal 0.000000e+00 1.000000e+00 0.000000e+00
      outer loop
         vertex 0.000000e+00 9.000000e-03 2.700000e-02
         vertex 1.377154e-02 9.000000e-03 2.060567e-02
         vertex 1.357433e-02 9.000000e-03 2.040846e-02
      endloop
   endfacet
   facet normal 0.000000e+00 1.000000e+00 0.000000e+00
      outer loop
         vertex 0.000000e+00 9.000000e-03 2.700000e-02
         vertex 1.400000e-02 9.000000e-03 2.076564e-02
         vertex 1.377154e-02 9.000000e-03 2.060567e-02
      endloop
   endfacet
   facet normal 0.000000e+00 1.000000e+00 0.000000e+00
      outer loop
         vertex 0.000000e+00 9.000000e-03 2.700000e-02
         vertex 1.425277e-02 9.000000e-03 2.088351e-02
         vertex 1.400000e-02 9.000000e-03 2.076564e-02
      endloop
   endfacet
   facet normal 0.000000e+00 1.000000e+00 0.000000e+00
      outer loop
         vertex 1.680000e-02 9.000000e-03 2.700000e-02
         vertex 1.452216e-02 9.000000e-03 2.095569e-02
         vertex 1.425277e-02 9.000000e-03 2.088351e-02
      endloop
   endfacet
   facet normal -0.000000e+00 1.000000e+00 0.000000e+00
      outer loop
         vertex 0.000000e+00 9.000000e-03 2.700000e-02
         vertex 1.680000e-02 9.000000e-03 2.700000e-02
         vertex 1.425277e-02 9.000000e-03 2.088351e-02
      endloop
   endfacet
   facet normal -0.000000e+00 1.000000e+00 -0.000000e+00
      outer loop
         vertex 2.000000e-03 9.000000e-03 2.098000e-02
         vertex 0.000000e+00 9.000000e-03 2.700000e-02
         vertex 2.277837e-03 9.000000e-03 2.095569e-02
      endloop
   endfacet
   facet normal 0.000000e+00 1.000000e+00 0.000000e+00
      outer loop
         vertex 1.680000e-02 9.000000e-03 2.700000e-02
         vertex 1.480000e-02 9.000000e-03 2.098000e-02
         vertex 1.452216e-02 9.000000e-03 2.095569e-02
      endloop
   endfacet
   facet normal 0.000000e+00 1.000000e+00 0.000000e+00
      outer loop
         vertex 0.000000e+00 9.000000e-03 2.700000e-02
         vertex 2.000000e-03 9.000000e-03 2.098000e-02
         vertex 0.000000e+00 9.000000e-03 2.098000e-02
      endloop
   endfacet
   facet normal 0.000000e+00 1.000000e+00 0.000000e+00
      outer loop
         vertex 1.680000e-02 9.000000e-03 2.700000e-02
         vertex 1.680000e-02 9.000000e-03 2.098000e-02
         vertex 1.480000e-02 9.000000e-03 2.098000e-02
      endloop
   endfacet
endsolid